<?xml version="1.0" standalone="no"?>
<!DOCTYPE svg PUBLIC "-//W3C//DTD SVG 20010904//EN"
 "http://www.w3.org/TR/2001/REC-SVG-20010904/DTD/svg10.dtd">
<svg version="1.0" xmlns="http://www.w3.org/2000/svg"
 width="951.000000pt" height="951.000000pt" viewBox="0 0 951.000000 951.000000"
 preserveAspectRatio="xMidYMid meet">

<g transform="translate(0.000000,951.000000) scale(0.100000,-0.100000)"
fill="#000000" stroke="none">
<path d="M720 9490 c0 -17 -3 -19 -18 -11 -20 11 -80 -13 -89 -36 -3 -8 -23
-13 -53 -13 -27 0 -52 -4 -55 -10 -3 -5 -15 -10 -26 -10 -10 0 -27 -9 -36 -20
-10 -11 -30 -20 -45 -20 -19 0 -26 -4 -22 -14 3 -7 -1 -16 -9 -19 -10 -3 -13
-14 -10 -31 4 -21 1 -26 -15 -26 -35 0 -37 -58 -5 -121 30 -58 142 -175 214
-224 24 -16 97 -70 163 -120 65 -49 138 -103 162 -120 23 -16 63 -48 88 -69
26 -21 49 -36 52 -33 3 3 -30 34 -74 69 -44 34 -78 68 -75 74 2 6 -13 24 -34
40 -21 15 -40 33 -42 38 -2 5 -14 20 -27 33 -13 13 -20 23 -16 23 4 0 -5 12
-21 28 -15 15 -39 45 -53 66 -25 38 -26 43 -16 110 6 39 11 99 11 134 0 63 14
125 34 151 30 36 50 151 27 151 -5 0 -10 -9 -10 -20z m130 -750 c0 -5 -2 -10
-4 -10 -3 0 -8 5 -11 10 -3 6 -1 10 4 10 6 0 11 -4 11 -10z"/>
<path d="M1560 9502 c0 -15 27 -45 32 -36 18 33 17 44 -7 44 -14 0 -25 -4 -25
-8z"/>
<path d="M1645 9458 c-34 -8 -45 -18 -69 -61 -29 -51 -31 -65 -21 -147 2 -14
6 -34 10 -45 7 -24 102 -88 116 -79 6 3 13 -3 16 -15 3 -12 13 -21 22 -22 9 0
34 -11 56 -24 22 -14 60 -34 85 -46 107 -51 126 -61 151 -76 15 -9 34 -13 43
-10 16 6 13 12 -21 46 -21 22 -41 37 -45 35 -8 -5 -38 53 -38 73 0 8 -6 21
-12 28 -7 8 -19 21 -26 30 -7 8 -20 55 -28 103 -21 123 -34 168 -44 153 -5 -9
-13 -1 -26 26 -18 37 -21 38 -74 40 -30 0 -73 -3 -95 -9z"/>
<path d="M1393 9381 c-18 -9 -33 -21 -33 -26 0 -6 -18 -22 -39 -35 -42 -26
-51 -44 -51 -97 0 -23 5 -33 15 -33 23 0 18 -16 -10 -28 -35 -16 -42 -54 -16
-95 28 -45 27 -58 -10 -111 -22 -34 -37 -46 -55 -46 -17 0 -24 -5 -24 -20 0
-11 7 -20 15 -20 8 0 15 -4 15 -9 0 -5 -7 -11 -15 -15 -19 -7 -19 -21 0 -39
11 -12 12 -17 2 -21 -9 -5 -9 -7 0 -12 7 -3 29 -16 48 -30 20 -13 41 -22 46
-19 5 4 9 1 9 -4 0 -6 7 -11 15 -11 8 0 15 4 15 10 0 5 17 21 37 35 24 16 31
25 20 25 -22 0 -24 55 -2 64 10 4 15 18 15 43 0 21 0 56 0 78 -1 25 -7 45 -17
53 -15 11 -15 12 -1 12 17 0 28 28 28 77 0 22 7 37 20 45 11 7 20 21 20 31 0
10 7 28 16 42 17 26 36 138 27 161 -7 18 -49 16 -90 -5z m-106 -133 c-3 -8 -6
-5 -6 6 -1 11 2 17 5 13 3 -3 4 -12 1 -19z m-1 -320 c-3 -13 -6 -32 -7 -43 -1
-17 -2 -16 -9 5 -13 41 -11 60 6 60 12 0 15 -6 10 -22z"/>
<path d="M9465 9318 c-52 -50 -65 -58 -85 -58 -22 0 -27 -15 -8 -26 6 -4 14
-2 16 4 5 17 27 15 42 -3 18 -21 -11 -30 -51 -16 -27 9 -37 8 -65 -10 -19 -11
-34 -27 -34 -34 0 -8 -24 -21 -57 -31 -34 -10 -67 -28 -80 -43 -19 -22 -23
-23 -23 -8 0 17 -2 17 -22 3 -12 -9 -29 -16 -38 -16 -8 0 -48 -16 -87 -35 -40
-19 -81 -35 -91 -35 -11 0 -35 -6 -53 -14 -31 -12 -164 -37 -283 -51 -27 -3
-53 -8 -57 -11 -5 -3 -29 -5 -54 -6 -25 0 -45 -5 -45 -10 0 -6 -11 -7 -26 -4
-18 5 -24 3 -18 -5 5 -8 0 -10 -17 -6 -29 7 -186 -15 -214 -30 -13 -7 -79 -11
-167 -11 -84 0 -154 -5 -166 -11 -10 -6 -22 -8 -25 -5 -11 11 -47 -17 -47 -36
0 -14 9 -21 35 -26 47 -8 51 -19 15 -34 -17 -7 -30 -17 -30 -23 0 -17 229 1
430 34 194 32 528 97 541 105 4 2 61 15 126 29 65 13 152 33 193 45 273 75
450 120 473 120 15 0 17 13 17 139 0 77 -3 141 -7 143 -5 2 -21 -9 -38 -24z"/>
<path d="M4628 9147 c-70 -20 -130 -63 -178 -129 -24 -32 -29 -36 -40 -23 -7
8 -27 14 -44 14 -30 -2 -30 -2 -3 -6 37 -6 34 -27 -5 -38 -42 -13 -47 -49 -8
-52 14 -1 18 0 8 3 -35 10 -14 44 27 44 10 0 12 -10 8 -37 -4 -21 -6 -74 -7
-118 0 -97 25 -157 94 -224 90 -88 235 -125 340 -86 25 9 53 19 62 22 9 3 31
-6 50 -20 50 -38 88 -40 88 -4 0 16 -9 28 -25 35 -40 18 -40 38 -1 84 20 23
36 48 36 55 0 14 26 18 34 5 3 -5 20 -7 38 -5 40 5 44 4 89 -3 21 -3 46 -1 59
6 16 9 25 9 33 1 15 -15 78 -13 100 3 15 12 23 11 53 -4 24 -13 43 -16 62 -11
15 4 55 6 90 3 58 -4 62 -3 62 17 0 11 -4 21 -10 21 -5 0 -10 16 -10 35 0 32
3 35 28 35 23 0 30 -8 51 -55 32 -74 51 -73 85 7 25 57 28 60 43 45 13 -13 14
-19 4 -31 -7 -8 -11 -27 -9 -43 3 -27 5 -28 69 -31 50 -2 69 1 79 13 10 12 10
19 2 27 -7 7 -12 29 -12 50 0 35 2 38 28 38 15 0 35 7 45 14 21 17 22 69 1 90
-35 36 -104 7 -104 -42 0 -19 -6 -22 -37 -22 -64 -1 -347 -8 -363 -9 -8 -1
-31 1 -51 5 -29 5 -41 1 -66 -20 l-32 -27 -3 23 c-2 19 -10 24 -41 26 -25 2
-45 -2 -57 -13 -15 -14 -18 -14 -30 0 -19 23 -75 19 -106 -8 -21 -19 -27 -32
-27 -66 l0 -42 -28 27 c-33 31 -36 46 -14 64 22 18 19 83 -5 105 -11 10 -29
37 -40 60 -73 151 -256 236 -412 192z m217 -78 c66 -34 135 -110 135 -149 0
-5 -22 -10 -50 -10 -36 0 -50 -4 -50 -14 0 -8 7 -16 15 -20 12 -4 15 -23 15
-85 0 -71 -2 -82 -21 -91 -11 -6 -18 -17 -16 -23 4 -12 8 -14 52 -16 17 -1 23
-5 19 -15 -11 -29 -37 -27 -66 5 -23 25 -31 29 -43 19 -19 -16 -19 -40 1 -68
20 -30 13 -38 -47 -52 -91 -22 -194 5 -261 68 -36 33 -35 42 2 42 20 0 30 5
30 15 0 9 9 15 24 15 16 0 27 7 31 20 7 22 25 27 25 8 0 -24 -16 -38 -43 -40
-15 -1 -27 -6 -27 -10 0 -12 55 -9 68 4 8 8 15 8 24 0 15 -12 108 -14 126 -3
8 5 8 26 2 71 -7 48 -15 69 -32 82 l-23 19 35 -3 c33 -3 36 -7 54 -58 22 -63
24 -66 32 -57 7 7 -29 131 -58 200 -27 62 -65 84 -107 63 -18 -10 -36 -33 -49
-63 -32 -74 -64 -176 -64 -200 0 -19 -6 -23 -29 -23 l-29 0 0 85 c0 74 2 86
20 95 33 18 23 30 -24 30 -25 0 -47 4 -50 9 -3 4 8 29 25 54 33 50 107 102
167 117 52 13 140 3 187 -21z m-73 -140 c33 -61 27 -69 -52 -69 -78 0 -81 4
-56 64 27 64 75 66 108 5z m-244 -36 c-16 -4 -18 -18 -18 -104 0 -69 4 -99 12
-99 6 0 8 -3 5 -7 -6 -6 -77 -12 -77 -7 0 1 3 10 6 19 5 13 8 14 15 3 5 -7 9
27 9 83 0 90 -1 97 -22 107 -20 9 -15 11 32 10 30 0 47 -2 38 -5z m542 -13
c27 -27 25 -56 -5 -84 l-25 -23 41 -47 c32 -37 37 -46 22 -46 -10 0 -34 20
-53 44 -36 46 -77 64 -87 40 -7 -18 6 -67 19 -75 5 -4 -6 -9 -26 -13 -45 -9
-64 1 -39 19 14 10 18 29 19 91 2 70 -1 81 -20 96 -20 17 -19 18 57 18 64 0
80 -3 97 -20z m970 -10 c6 -11 8 -20 6 -20 -3 0 -10 9 -16 20 -6 11 -8 20 -6
20 3 0 10 -9 16 -20z m-64 -25 c0 -18 -3 -32 -8 -29 -13 8 -8 64 6 64 1 0 1
-16 2 -35z m37 8 c-6 -14 -33 -18 -33 -5 0 12 8 19 24 19 8 0 12 -6 9 -14z
m-1566 -35 c-3 -8 -6 -5 -6 6 -1 11 2 17 5 13 3 -3 4 -12 1 -19z m20 -10 c-3
-7 -5 -2 -5 12 0 14 2 19 5 13 2 -7 2 -19 0 -25z m211 11 c-33 -25 -35 -39 -8
-62 16 -13 25 -15 40 -7 30 16 34 12 9 -8 -26 -22 -21 -56 8 -45 16 6 16 5 4
-10 -20 -25 -51 -22 -51 6 0 18 -2 19 -10 7 -6 -9 -10 -10 -10 -3 0 6 5 15 10
18 26 16 7 27 -35 23 -33 -4 -43 -2 -37 6 5 6 14 30 21 54 11 40 14 42 49 42
l37 -1 -27 -20z m1348 -5 c-11 -8 -25 -14 -30 -13 -6 0 -1 5 12 11 12 6 22 16
22 21 0 6 3 7 7 3 5 -4 -1 -14 -11 -22z m-498 -17 c21 -17 14 -37 -14 -37 -22
0 -24 2 -14 15 10 12 9 16 -4 21 -29 11 -46 -4 -46 -40 0 -39 27 -62 60 -51
30 9 24 -14 -6 -25 -32 -13 -37 -12 -29 0 5 9 -18 15 -28 8 -7 -5 -37 24 -37
35 0 6 7 2 15 -9 14 -17 14 -17 4 12 -23 70 40 116 99 71z m135 14 c19 -2 4
-19 -23 -24 -28 -6 -30 -9 -30 -52 0 -25 5 -45 10 -45 6 0 10 -4 10 -8 0 -5
-13 -9 -30 -9 -27 0 -30 3 -29 31 1 30 1 30 9 6 6 -20 8 -14 9 28 1 43 -2 52
-16 52 -16 1 -16 2 -2 13 13 10 44 13 92 8z m79 -10 c-7 -4 -5 -18 5 -41 14
-33 15 -34 29 -16 17 24 18 53 2 59 -7 3 3 6 22 6 19 0 30 -3 24 -7 -7 -4 -25
-36 -42 -72 -17 -36 -31 -57 -31 -47 -1 27 -50 117 -64 118 -6 1 2 5 18 8 32
8 54 3 37 -8z m212 -32 c10 -54 7 -101 -6 -97 -8 3 -14 28 -16 66 -2 47 -7 62
-18 62 -8 0 -12 5 -9 10 11 18 42 -8 49 -41z m-1251 21 c-3 -11 -9 -20 -14
-20 -5 0 -9 9 -9 20 0 11 6 20 14 20 9 0 12 -7 9 -20z m60 13 c3 -5 7 -35 8
-67 3 -41 0 -61 -8 -63 -10 -4 -13 13 -13 60 0 54 -3 66 -17 70 -14 4 -13 5 4
6 12 0 24 -2 26 -6z m497 -12 c15 -29 13 -31 -32 -30 -31 2 -35 3 -15 6 34 5
31 28 -4 28 -20 0 -25 -6 -27 -32 -2 -25 2 -35 21 -48 13 -8 32 -13 41 -9 27
10 18 -12 -11 -25 -19 -9 -28 -9 -33 -1 -4 6 -13 12 -21 13 -42 7 -52 48 -23
92 21 32 88 36 104 6z m120 -3 c-1 -21 -2 -22 -14 -5 -14 18 -56 24 -56 7 0
-5 15 -16 34 -24 41 -17 50 -30 42 -61 -12 -48 -96 -45 -96 3 1 23 2 24 11 10
16 -28 50 -43 60 -27 16 25 9 37 -26 49 -19 6 -35 18 -35 26 0 9 -5 12 -11 8
-8 -4 -8 0 0 15 9 16 21 21 51 21 35 0 40 -3 40 -22z m503 2 c-3 -11 -9 -17
-14 -14 -14 8 -10 34 5 34 9 0 12 -7 9 -20z m-324 -57 c-1 -21 -3 -30 -6 -20
-4 14 -12 16 -44 11 -31 -5 -39 -3 -39 9 0 11 9 15 36 12 23 -1 37 2 41 11 9
24 13 15 12 -23z m-572 -5 c-3 -7 -5 -2 -5 12 0 14 2 19 5 13 2 -7 2 -19 0
-25z m283 11 c0 -9 -27 -19 -51 -19 -17 0 -25 11 -15 21 7 7 66 5 66 -2z m620
-4 c-17 -20 -5 -46 17 -38 17 5 17 5 1 -12 -9 -10 -23 -15 -31 -12 -21 8 -27
45 -10 62 19 20 39 20 23 0z"/>
<path d="M4964 8866 c-15 -63 10 -89 66 -66 22 9 27 17 26 42 -2 32 -20 46
-63 47 -16 1 -24 -6 -29 -23z"/>
<path d="M5150 8741 c0 -17 4 -32 8 -35 4 -2 6 11 4 30 -5 42 -12 45 -12 5z"/>
<path d="M4289 9045 c-1 -3 -2 -11 -3 -17 0 -7 -12 -15 -26 -16 -73 -10 -83
-104 -10 -101 l25 1 -25 7 c-44 12 -35 81 11 81 16 0 19 -8 19 -45 0 -25 5
-45 10 -45 6 0 10 30 10 70 0 39 -2 70 -5 70 -3 0 -6 -2 -6 -5z"/>
<path d="M3635 8993 c4 -10 12 -36 18 -57 9 -34 8 -41 -8 -52 -21 -15 -16 -28
7 -19 17 7 74 132 65 141 -3 4 -13 -10 -21 -31 -17 -41 -31 -39 -41 5 -4 17
-11 30 -17 30 -6 0 -7 -7 -3 -17z"/>
<path d="M3753 8998 c-31 -41 -11 -89 35 -87 24 2 24 2 4 6 -12 2 -27 13 -32
24 -10 17 -7 19 24 19 39 0 53 14 36 35 -15 18 -54 19 -67 3z m57 -13 c0 -9
-9 -15 -25 -15 -16 0 -25 6 -25 15 0 9 9 15 25 15 16 0 25 -6 25 -15z"/>
<path d="M3861 8996 c-7 -8 -11 -30 -9 -48 3 -29 7 -33 33 -35 28 -2 28 -2 7
7 -12 5 -25 16 -28 24 -9 24 14 56 41 56 24 0 25 -3 23 -52 -2 -63 -10 -77
-43 -70 -15 2 -25 0 -25 -7 0 -17 56 -13 74 5 11 10 16 34 16 75 l0 59 -39 0
c-21 0 -44 -6 -50 -14z"/>
<path d="M3972 8963 l3 -48 48 -1 47 -2 0 49 c0 27 -4 49 -10 49 -5 0 -10 -18
-10 -39 0 -44 -10 -55 -40 -46 -16 5 -20 15 -20 46 0 21 -5 39 -11 39 -6 0 -9
-19 -7 -47z"/>
<path d="M4133 9003 c37 -6 34 -21 -9 -39 -41 -17 -44 -48 -4 -51 15 -1 18 0
8 3 -22 7 -23 30 -2 38 27 10 34 7 34 -19 0 -14 5 -25 11 -25 6 0 9 19 7 48
-3 46 -4 47 -38 48 -26 1 -28 1 -7 -3z"/>
<path d="M2080 8910 c0 -5 5 -10 10 -10 6 0 10 5 10 10 0 6 -4 10 -10 10 -5 0
-10 -4 -10 -10z"/>
<path d="M9430 8685 c-30 -7 -75 -18 -100 -25 -25 -8 -49 -13 -54 -11 -4 1
-13 -3 -20 -8 -6 -5 -38 -17 -71 -26 -178 -50 -655 -227 -688 -256 -5 -4 24
-33 63 -64 40 -32 100 -82 133 -113 115 -102 108 -100 317 -111 205 -11 281
-28 360 -81 25 -16 51 -30 59 -30 8 0 11 -6 7 -16 -3 -8 -2 -13 3 -10 8 6 24
-18 26 -39 1 -15 29 -55 37 -55 5 0 8 194 8 430 0 338 -3 430 -12 429 -7 -1
-38 -7 -68 -14z"/>
<path d="M43 8653 l-43 -4 0 -105 0 -104 39 0 c27 0 45 -7 62 -24 23 -23 30
-24 177 -25 l152 -2 0 39 c0 21 -7 47 -15 58 -8 10 -15 15 -15 10 0 -6 -14 3
-30 19 -17 16 -26 31 -21 35 15 9 -4 31 -30 35 -25 3 -91 27 -99 35 -34 34
-52 43 -59 31 -7 -10 -13 -10 -29 -2 -11 6 -27 10 -34 9 -7 -1 -32 -3 -55 -5z"/>
<path d="M5367 8570 c-15 -54 -2 -122 18 -91 3 6 12 8 21 4 11 -4 13 -14 8
-37 -4 -21 -3 -28 4 -21 11 11 15 35 13 75 -1 20 -3 22 -11 10 -6 -10 -10 -11
-10 -2 0 6 -6 11 -12 10 -8 -2 -15 13 -18 37 -5 36 -6 37 -13 15z"/>
<path d="M1056 8567 c3 -10 9 -15 12 -12 3 3 0 11 -7 18 -10 9 -11 8 -5 -6z"/>
<path d="M5193 8513 c20 -2 54 -2 75 0 20 2 3 4 -38 4 -41 0 -58 -2 -37 -4z"/>
<path d="M5548 8513 c18 -2 45 -2 60 0 15 2 0 4 -33 4 -33 0 -45 -2 -27 -4z"/>
<path d="M5154 8439 c-12 -19 -4 -149 11 -182 l14 -32 -7 40 c-4 22 -6 73 -5
113 3 71 1 82 -13 61z"/>
<path d="M5020 8397 c-18 -12 -40 -33 -49 -47 -12 -19 -4 -15 29 14 l44 39 13
-59 c17 -76 33 -115 44 -108 5 3 9 10 9 15 0 6 -4 8 -9 5 -11 -7 -18 20 -27
97 -4 32 -10 60 -14 62 -4 3 -22 -5 -40 -18z"/>
<path d="M5246 8393 c-5 -20 -9 -99 -7 -155 1 -28 5 -38 17 -38 14 0 15 6 9
38 -11 50 -11 100 -1 140 8 33 -8 48 -18 15z m11 -175 c-3 -7 -5 -2 -5 12 0
14 2 19 5 13 2 -7 2 -19 0 -25z"/>
<path d="M5445 8400 c-3 -5 -3 -10 0 -10 4 0 -3 -15 -14 -34 -12 -18 -20 -46
-20 -62 1 -20 3 -23 6 -9 9 43 27 76 47 90 11 8 15 15 8 15 -7 0 -10 5 -7 10
3 6 2 10 -4 10 -5 0 -13 -4 -16 -10z"/>
<path d="M5511 8367 c17 -36 -6 -105 -48 -144 -40 -38 -41 -65 -1 -34 31 25
68 100 68 140 0 35 -9 61 -21 61 -5 0 -4 -10 2 -23z"/>
<path d="M135 8370 c3 -5 10 -10 16 -10 5 0 9 5 9 10 0 6 -7 10 -16 10 -8 0
-12 -4 -9 -10z"/>
<path d="M0 8175 l0 -168 120 6 c103 6 120 5 120 -8 0 -20 20 -19 34 1 7 9 28
16 52 17 57 2 186 -14 208 -25 35 -19 236 97 236 136 0 7 -3 7 -8 -1 -11 -17
-52 -11 -86 12 -16 11 -34 20 -40 20 -19 2 -69 16 -136 40 -78 28 -212 65
-235 65 -9 0 -35 10 -58 21 -23 12 -64 25 -92 30 -27 4 -65 11 -82 15 l-33 7
0 -168z"/>
<path d="M5022 8274 c-25 -71 -24 -100 1 -37 15 40 31 103 25 103 -2 0 -13
-30 -26 -66z"/>
<path d="M5121 8324 c0 -11 3 -14 6 -6 3 7 2 16 -1 19 -3 4 -6 -2 -5 -13z"/>
<path d="M5186 8304 c-10 -26 -7 -33 14 -31 20 1 29 27 9 27 -5 0 -7 5 -4 10
3 6 2 10 -3 10 -6 0 -13 -7 -16 -16z"/>
<path d="M5277 8313 c-10 -10 -8 -43 2 -43 9 0 21 24 21 41 0 11 -14 12 -23 2z"/>
<path d="M5320 8313 c1 -4 7 -19 15 -33 11 -20 14 -21 15 -7 0 10 -7 25 -15
33 -8 9 -15 12 -15 7z"/>
<path d="M5550 8295 c-4 -5 -11 -21 -14 -35 -6 -22 -5 -22 11 5 15 27 18 28
21 10 6 -29 22 -43 22 -19 1 18 1 18 11 0 9 -15 13 -16 20 -5 8 12 11 12 19
-1 7 -11 10 -6 10 20 -1 33 -2 34 -15 16 -15 -20 -15 -19 -15 1 0 16 -6 20
-31 19 -17 -1 -34 -5 -39 -11z"/>
<path d="M5738 8305 c-3 -3 -3 -18 1 -33 9 -34 41 -36 59 -3 15 30 15 31 -4
31 -9 0 -18 -10 -21 -21 -6 -20 -7 -20 -17 6 -6 14 -14 24 -18 20z"/>
<path d="M5665 8280 c-9 -27 6 -50 16 -24 4 10 8 25 8 32 1 20 -17 14 -24 -8z"/>
<path d="M5707 8278 c-7 -25 0 -41 14 -33 12 8 12 42 0 49 -5 3 -11 -4 -14
-16z"/>
<path d="M5834 8292 c-16 -11 -15 -52 2 -52 12 0 11 -6 -5 -29 -25 -35 -26
-41 -6 -41 21 0 47 61 33 77 -6 7 -8 19 -5 28 7 17 -4 27 -19 17z"/>
<path d="M9090 7921 c0 -5 7 -12 16 -15 14 -5 15 -4 4 9 -14 17 -20 19 -20 6z"/>
<path d="M1807 7843 c-4 -6 -11 -49 -16 -96 -8 -71 -16 -96 -44 -139 -33 -51
-149 -168 -167 -168 -8 0 -104 -76 -157 -125 l-22 -20 144 -3 c99 -3 145 0
145 7 0 6 7 11 15 11 8 0 15 -4 15 -10 0 -5 10 -10 23 -10 12 0 40 -10 62 -21
22 -12 55 -30 74 -40 39 -21 86 -57 143 -110 37 -34 113 -67 126 -55 3 3 11 1
19 -5 17 -15 16 -1 -2 31 -8 14 -14 34 -14 45 0 19 0 19 11 1 22 -38 50 -67
140 -148 58 -53 54 -28 -8 57 -35 46 -84 157 -83 185 1 21 2 19 11 -10 5 -19
18 -44 27 -55 10 -11 30 -42 46 -70 37 -67 86 -119 97 -102 6 9 8 9 8 -1 0 -7
6 -19 13 -26 15 -15 50 -29 42 -17 -3 5 -1 12 5 16 5 3 10 1 10 -4 0 -6 7 -11
16 -11 13 0 14 3 5 14 -6 7 -8 22 -4 31 4 12 3 16 -4 12 -6 -4 -14 5 -18 21
-3 15 -18 44 -32 64 -33 48 -60 172 -43 193 10 12 9 20 -4 40 -9 14 -23 25
-31 25 -23 0 -18 20 13 49 l27 26 -23 3 c-22 3 -23 7 -17 40 4 20 8 47 10 60
1 12 10 31 19 41 16 17 22 51 9 51 -3 0 -28 -14 -54 -31 -27 -17 -53 -28 -59
-24 -6 4 -17 1 -25 -5 -19 -15 -73 15 -77 44 -3 19 -9 21 -85 29 -11 1 -19 5
-16 10 2 4 -3 7 -12 7 -9 0 -20 13 -26 28 -9 26 -14 29 -54 29 -36 0 -45 -4
-49 -21 -6 -24 15 -44 82 -77 23 -11 42 -25 42 -30 0 -5 9 -9 20 -9 11 0 20
-7 20 -15 0 -20 46 -38 83 -32 18 2 27 -1 27 -10 0 -13 -22 -17 -69 -13 -41 3
-109 38 -153 78 -24 22 -54 43 -68 46 -46 13 -70 29 -70 48 0 10 4 18 9 18 4
0 20 9 34 20 26 21 26 21 7 40 -11 11 -20 27 -20 35 0 8 -9 15 -20 15 -11 0
-20 4 -20 8 0 17 -27 45 -33 35z"/>
<path d="M6355 7841 c-240 -21 -350 -177 -271 -385 15 -38 25 -74 22 -80 -2
-6 -8 0 -13 12 -7 19 -11 7 -21 -63 -11 -83 -59 -214 -69 -188 -2 6 5 42 16
78 12 37 21 75 20 84 0 9 -8 -9 -18 -39 -41 -126 -95 -196 -208 -271 -49 -31
-68 -49 -58 -53 8 -3 23 -3 33 0 38 12 -36 -26 -82 -42 -30 -10 -44 -19 -36
-24 9 -6 9 -9 -1 -12 -12 -5 -12 -9 -1 -28 12 -19 12 -24 0 -31 -10 -7 -10 -9
2 -10 8 0 4 -5 -10 -9 -31 -10 -127 -12 -167 -4 -30 6 -30 7 -22 46 5 21 7 43
4 48 -3 4 5 6 17 4 13 -3 -4 8 -37 25 -33 16 -53 30 -45 30 13 1 13 2 0 11
-12 8 -12 10 -1 10 8 0 -4 12 -25 26 -104 70 -144 132 -144 229 1 258 207 465
465 467 46 0 102 -6 132 -15 63 -19 65 -1 3 26 -153 66 -343 40 -469 -64 -19
-16 -37 -27 -39 -24 -8 7 53 64 108 99 30 20 47 36 37 36 -21 0 -23 26 -1 34
8 3 13 10 10 15 -3 5 1 11 8 14 8 3 17 1 20 -6 3 -9 5 -9 5 0 1 6 31 17 69 23
61 11 72 10 123 -9 31 -12 68 -32 81 -44 13 -12 42 -34 65 -49 46 -30 74 -56
121 -114 40 -48 40 -40 1 39 -74 153 -186 213 -383 205 -90 -3 -109 -8 -171
-38 -46 -22 -91 -55 -131 -95 -55 -54 -65 -70 -87 -141 -14 -43 -30 -106 -37
-139 -6 -33 -33 -130 -60 -215 -26 -85 -56 -190 -65 -232 l-17 -78 -104 -2
c-201 -4 -189 -5 -189 17 0 17 7 20 39 20 l38 0 45 152 c42 140 44 153 29 168
-11 11 -14 25 -10 43 l6 27 -17 -23 c-9 -13 -22 -21 -28 -19 -6 2 -23 -18 -37
-45 -14 -26 -36 -55 -48 -64 -29 -20 -28 -9 3 28 29 34 32 48 9 48 -8 0 -12
-4 -9 -10 3 -5 2 -10 -4 -10 -10 0 -43 -32 -109 -104 -34 -38 -52 -45 -52 -22
0 20 -71 188 -77 182 -3 -3 12 -56 33 -118 21 -62 39 -116 39 -120 0 -15 -18
-13 -20 2 -5 33 -80 209 -86 202 -7 -7 -45 -141 -78 -272 -10 -41 -22 -75 -27
-76 -5 -1 -26 -5 -48 -9 l-39 -6 6 -58 6 -58 -42 -6 c-24 -3 -54 -3 -66 0 -21
5 -22 10 -18 64 7 73 9 72 -172 69 -224 -5 -208 -9 -214 53 -6 65 8 85 17 23
7 -44 18 -57 31 -37 3 5 1 20 -4 33 -5 13 -12 35 -15 51 l-6 27 -159 0 -159 0
-31 -48 c-17 -27 -31 -51 -31 -54 0 -3 11 -3 24 -1 21 4 24 2 19 -16 -3 -12
-10 -24 -17 -28 -12 -8 -306 -4 -320 4 -16 10 20 23 66 23 39 0 49 4 59 23 7
12 45 68 85 125 41 57 74 107 74 113 0 5 3 9 8 9 4 0 25 28 47 63 22 34 42 64
45 67 3 3 40 57 83 120 42 63 93 139 113 168 l37 52 97 0 c79 0 99 3 104 15 8
22 -3 24 -145 27 l-125 3 -35 -48 c-154 -213 -168 -229 -195 -207 -10 9 -14 9
-14 1 0 -6 -9 -11 -20 -11 -11 0 -20 -5 -20 -11 0 -5 5 -7 10 -4 6 3 10 1 10
-4 0 -6 -7 -11 -15 -11 -9 0 -20 -11 -27 -25 -6 -13 -15 -22 -19 -19 -5 3 -11
-6 -15 -20 -3 -13 -14 -32 -25 -42 -10 -9 -19 -23 -19 -31 0 -7 -4 -13 -10
-13 -5 0 -10 -9 -10 -19 0 -10 -7 -21 -15 -25 -8 -3 -15 -12 -15 -21 0 -8 -6
-15 -14 -15 -8 0 -17 -8 -21 -17 -6 -17 -7 -17 -16 0 -6 9 -7 27 -4 40 4 12 3
17 -2 11 -4 -6 -16 -11 -25 -11 -15 0 -16 4 -3 36 l15 36 -21 -25 c-45 -55
-199 -288 -199 -302 0 -5 7 -8 15 -4 8 3 15 3 15 0 0 -12 -31 -63 -40 -66 -7
-2 -7 -19 -1 -53 7 -36 6 -52 -2 -57 -7 -4 -47 -8 -90 -8 l-78 0 -52 -50 c-48
-45 -50 -50 -27 -50 15 0 36 13 58 38 19 20 29 29 22 20 -15 -21 -7 -24 12 -5
7 8 35 16 62 19 32 4 44 3 35 -3 -9 -7 3 -7 34 -3 53 7 60 -3 27 -39 -15 -15
-19 -29 -15 -46 9 -36 53 -357 59 -431 l6 -65 -15 44 c-8 24 -16 46 -19 48 -9
10 37 -327 50 -361 3 -8 14 -16 25 -19 10 -3 19 -12 19 -20 0 -19 -74 -26
-207 -19 l-101 5 -6 30 c-9 43 -7 77 3 77 5 0 11 -18 15 -40 4 -27 11 -40 22
-40 11 0 14 5 9 18 -3 9 -9 31 -12 47 -10 54 -14 55 -178 55 l-153 0 -26 -34
c-14 -19 -26 -38 -26 -43 -1 -4 -9 -18 -19 -30 -18 -21 -27 -23 -118 -21 l-98
2 95 6 95 6 -72 2 -73 2 40 58 c114 162 210 302 210 307 0 2 7 13 15 22 8 10
63 89 122 176 l108 159 100 1 c96 2 100 3 103 25 l3 23 -138 -3 c-126 -3 -138
-5 -141 -22 -2 -10 -15 -30 -28 -43 -13 -13 -24 -31 -24 -39 0 -9 -5 -12 -12
-8 -8 5 -9 2 -5 -10 4 -9 3 -15 -2 -12 -10 7 -25 -23 -22 -43 1 -7 -2 -10 -8
-7 -13 8 -54 -51 -45 -65 4 -7 3 -9 -4 -5 -10 6 -28 -13 -59 -60 -13 -20 -118
-170 -182 -259 -123 -173 -140 -202 -129 -213 15 -15 282 -17 273 -2 -3 5 8
16 25 25 16 8 37 27 46 40 14 21 24 25 63 24 25 -1 39 -3 30 -6 -12 -3 -16
-21 -18 -76 -1 -40 -6 -100 -10 -133 -6 -57 -5 -63 17 -83 18 -16 20 -21 8
-21 -9 0 -16 -4 -16 -10 0 -17 87 -12 94 5 15 39 59 43 400 42 237 -2 330 -5
333 -13 2 -7 13 -10 23 -7 11 3 20 0 20 -6 0 -6 8 -11 19 -11 22 0 44 -24 48
-51 2 -12 -3 -19 -15 -19 -12 0 -10 -5 11 -18 39 -26 125 -141 137 -182 5 -19
10 -66 10 -103 0 -86 -30 -149 -107 -224 -56 -55 -171 -122 -182 -105 -7 11
-41 12 -41 0 0 -4 5 -8 10 -8 6 0 42 -21 80 -47 79 -54 101 -90 108 -171 11
-134 -67 -253 -213 -324 -44 -21 -79 -43 -78 -49 2 -5 -7 -9 -20 -10 -20 0
-20 -1 -3 -8 26 -10 -93 -36 -123 -26 -13 4 -21 2 -21 -5 0 -8 -27 -10 -90 -7
-100 6 -101 5 -74 -58 8 -20 14 -53 12 -73 -3 -35 -5 -37 -39 -40 -26 -2 -53
6 -95 29 -152 84 -200 108 -215 109 -15 0 -16 -12 -12 -92 4 -92 15 -151 32
-177 7 -10 13 -11 31 -1 16 9 25 9 33 1 6 -6 33 -11 60 -11 43 0 48 2 37 15
-10 12 -10 15 4 15 9 0 16 -7 16 -15 0 -12 21 -13 132 -9 73 3 135 9 138 13 3
4 57 7 120 7 101 0 212 14 314 40 16 4 45 17 63 30 19 12 47 29 63 36 17 7 30
16 30 21 0 4 11 17 24 28 14 12 30 41 37 65 8 24 18 44 24 45 31 3 -49 17
-102 18 -53 1 -63 4 -63 19 0 9 5 24 10 32 8 13 10 12 10 -3 0 -14 6 -18 27
-15 31 4 37 18 95 238 54 207 98 372 143 535 18 65 45 165 90 343 l29 112 173
0 c160 0 173 1 183 19 5 11 10 22 10 26 0 3 -91 4 -201 3 l-202 -3 -33 -125
c-64 -235 -75 -275 -101 -360 -14 -47 -34 -107 -44 -135 -22 -55 -22 -57 6
102 15 86 12 134 -12 168 -7 11 -13 28 -13 38 0 10 -4 16 -9 12 -5 -3 -5 11 1
32 6 21 8 74 6 118 -6 116 -37 166 -127 206 -71 31 -144 50 -231 58 -45 5 -83
11 -86 14 -3 3 -5 71 -5 152 1 80 -3 172 -8 203 -5 31 -17 100 -26 152 -19
112 -53 244 -71 278 l-12 25 -4 -29 c-3 -20 -5 -13 -8 23 -3 28 -1 49 3 46 5
-3 5 16 2 41 -5 31 -4 46 4 46 6 0 12 -12 12 -27 1 -16 3 -21 6 -12 2 9 22 22
45 30 42 14 132 95 143 130 4 10 11 19 16 19 5 0 9 6 9 13 0 6 16 25 35 40 29
23 43 28 83 25 l47 -3 10 -83 c6 -46 13 -81 17 -77 3 3 6 0 5 -7 0 -7 1 -22 2
-33 1 -18 3 -19 14 -3 7 9 29 18 48 20 18 2 34 8 34 14 0 7 12 23 26 37 l25
26 267 0 267 0 15 -23 c9 -13 14 -30 13 -37 -2 -8 5 -14 17 -14 14 0 22 11 31
45 11 40 12 42 13 14 1 -37 10 -47 28 -32 21 17 28 1 8 -18 -25 -25 -55 -101
-61 -153 l-5 -46 21 25 c11 14 35 42 52 64 18 21 49 49 70 63 21 14 35 30 32
35 -4 6 3 8 17 4 13 -3 18 -3 11 0 -10 5 -10 9 -1 20 6 8 8 14 3 14 -5 0 13
12 41 25 48 24 97 30 178 21 21 -2 41 -7 45 -11 4 -5 1 -5 -5 -1 -7 4 -13 2
-13 -3 0 -6 11 -11 24 -11 31 0 89 -25 106 -44 10 -14 10 -16 -6 -16 -11 0 7
-16 42 -38 33 -20 68 -45 78 -54 27 -28 43 -21 51 19 4 21 12 47 18 58 6 11
10 32 8 47 -2 24 2 28 36 37 22 5 160 9 322 8 l283 -2 33 -37 c39 -45 70 -52
55 -12 -13 32 -13 34 3 34 7 0 34 20 61 45 26 25 59 53 72 62 41 27 57 70 58
160 1 80 1 81 20 61 20 -21 33 -84 16 -73 -6 3 -10 -1 -10 -9 0 -9 5 -16 10
-16 6 0 10 -12 10 -27 0 -40 18 -100 35 -116 20 -20 9 -27 -44 -27 -25 0 -51
-4 -56 -8 -24 -17 -188 -278 -199 -316 -7 -24 -18 -41 -26 -41 -8 0 -25 -11
-36 -25 -23 -26 -174 -240 -231 -325 -36 -53 -36 -51 -7 -152 l15 -53 52 0 52
0 48 68 c27 37 71 99 98 137 27 39 57 81 67 94 23 32 98 141 206 300 l89 131
72 0 c100 0 135 8 135 31 0 18 -9 19 -123 19 l-123 0 -60 -87 c-53 -78 -111
-152 -88 -113 13 24 67 104 73 110 4 3 16 19 28 36 32 46 38 80 19 109 -9 13
-16 29 -16 35 0 12 166 13 195 0 11 -5 16 -9 11 -9 -5 -1 1 -9 12 -20 12 -10
19 -21 15 -25 -3 -3 10 -6 31 -6 l36 0 -16 25 c-22 33 -14 41 14 14 13 -11 39
-27 59 -35 33 -14 40 -14 79 1 24 9 49 13 55 9 8 -4 9 0 4 15 -5 16 -3 20 8
15 18 -6 9 -50 -62 -317 -28 -103 -51 -196 -51 -207 0 -44 -20 -26 -33 32 -9
35 -16 52 -16 38 -1 -27 33 -265 49 -345 l10 -50 59 -3 c57 -3 59 -2 64 25 5
28 78 291 96 348 6 17 17 57 25 90 15 63 36 140 59 215 l13 45 224 0 c185 -1
232 -4 262 -17 29 -13 36 -14 31 -3 -9 26 -90 55 -174 65 -98 12 -359 13 -375
2 -6 -4 -21 -45 -33 -92 -31 -118 -92 -313 -96 -308 -6 5 20 120 64 283 22 82
37 152 33 155 -4 3 -20 20 -36 37 l-29 32 179 -4 c197 -4 215 -5 207 -18 -2
-4 8 -5 23 -1 19 5 25 4 20 -5 -5 -7 2 -11 18 -11 19 0 24 -4 20 -15 -5 -11
-2 -14 12 -9 11 4 16 4 12 -1 -4 -4 16 -16 45 -26 62 -22 57 -21 57 -10 0 16
-105 80 -164 101 -51 17 -85 20 -237 20 -98 0 -189 4 -202 9 -24 9 -25 13 -20
70 5 68 9 65 -72 52 -62 -11 -226 3 -280 23 -22 8 -33 15 -24 15 9 1 19 7 22
14 3 9 -16 23 -54 42 -33 15 -61 31 -64 34 -2 4 19 31 46 60 27 30 53 60 58
69 7 12 19 9 73 -22 111 -62 220 -83 263 -52 17 12 18 17 7 40 -7 15 -12 35
-12 45 0 21 -47 57 -86 67 -16 4 -48 15 -72 25 -24 10 -41 15 -37 10 3 -5 -4
-7 -16 -4 -13 4 -16 8 -9 13 6 4 -3 7 -20 7 l-30 0 27 -19 c16 -10 31 -18 36
-18 4 0 36 -13 71 -29 58 -26 63 -31 59 -55 -4 -19 -12 -26 -27 -26 -38 0
-111 29 -147 59 -31 26 -32 30 -19 47 8 10 10 15 4 11 -15 -8 -113 89 -120
119 -4 14 -5 55 -2 92 3 64 7 73 56 140 30 39 67 83 85 98 24 21 28 27 16 35
-8 5 -18 9 -22 9 -5 0 -5 5 -2 10 3 6 0 10 -7 11 -7 0 -1 5 15 11 15 5 25 14
21 19 -3 5 0 10 5 10 6 1 14 2 19 3 43 12 127 15 172 6 30 -6 62 -12 71 -13
10 -1 15 -7 11 -16 -4 -11 1 -13 20 -8 20 5 30 1 44 -18 10 -14 25 -25 32 -25
19 0 105 -46 138 -73 l29 -25 1 27 c0 14 4 35 8 46 7 19 7 19 -7 3 -19 -24
-42 -22 -64 5 -42 53 -153 108 -248 122 -73 11 -89 12 -160 6z m-2719 -229
c-17 -16 -18 -16 -5 5 7 12 15 20 18 17 3 -2 -3 -12 -13 -22z m1639 -103 c-68
-99 -93 -246 -60 -354 18 -63 5 -92 -17 -38 -9 21 -19 58 -23 82 -6 49 18 188
42 236 22 45 77 125 86 125 4 0 -8 -23 -28 -51z m1215 -349 c0 -5 -4 -10 -10
-10 -5 0 -10 5 -10 10 0 6 5 10 10 10 6 0 10 -4 10 -10z m-1292 -107 c6 -27
13 -88 17 -138 3 -52 12 -98 20 -112 10 -15 11 -24 4 -28 -20 -13 -124 -17
-151 -6 l-27 10 16 38 c9 21 19 52 24 68 64 241 77 263 97 168z m-592 -184
c37 -70 38 -71 72 -65 43 6 98 55 80 69 -9 6 -7 7 5 3 10 -3 25 -6 33 -6 8 0
14 -8 14 -17 0 -9 6 -24 13 -32 21 -25 38 -71 27 -71 -6 0 -48 10 -93 21 -76
20 -89 21 -175 10 -52 -7 -96 -10 -100 -7 -3 3 0 6 6 6 6 0 18 26 27 58 15 52
39 102 50 102 2 0 21 -32 41 -71z m-681 -91 c-12 -9 -74 -9 -97 0 -15 6 -12
13 24 51 l42 43 21 -44 c14 -28 17 -45 10 -50z m1918 -413 c-3 -9 -8 -14 -10
-11 -3 3 -2 9 2 15 9 16 15 13 8 -4z m-2896 -611 c-3 -4 1 -13 9 -21 8 -9 13
-20 11 -27 -5 -15 -66 -19 -97 -7 -22 8 -22 10 -5 10 22 1 58 35 48 45 -4 3 4
6 17 6 13 0 21 -3 17 -6z m548 -1194 c-8 -25 -12 -34 -9 -20 3 14 8 54 12 90
7 61 7 62 10 20 1 -25 -4 -65 -13 -90z"/>
<path d="M3437 7832 l-138 -3 -40 -42 c-42 -45 -47 -57 -25 -57 16 0 46 26 46
40 0 5 7 7 15 3 10 -3 15 0 13 8 -2 8 4 14 12 14 8 0 20 3 25 7 6 3 35 6 65 6
65 -1 98 -24 81 -57 -8 -15 -7 -20 5 -25 9 -3 17 -6 19 -6 7 0 66 102 63 108
-2 4 -65 6 -141 4z"/>
<path d="M3758 7815 c-11 -11 -29 -32 -40 -47 l-19 -28 25 0 c14 0 26 4 26 9
0 4 11 19 25 33 22 22 34 25 114 27 l90 2 -1 -48 c-1 -26 13 -140 30 -253 18
-113 32 -221 31 -240 l-1 -35 -14 35 c-14 34 -14 34 -9 -30 8 -90 34 -250 46
-278 5 -13 14 -20 19 -17 6 3 10 1 10 -5 0 -7 16 -10 42 -8 l42 3 39 135 c21
74 49 173 62 220 82 305 96 354 101 361 3 5 50 9 104 9 94 0 125 9 104 30 -5
5 -63 10 -128 11 l-119 3 -24 -90 c-40 -147 -136 -430 -153 -447 -5 -6 -18 52
-22 100 0 2 -6 30 -14 64 -23 99 -42 196 -64 329 -11 69 -23 137 -26 152 l-5
27 -126 -2 c-113 -1 -128 -3 -145 -22z"/>
<path d="M2705 7810 c-18 -19 -18 -22 -2 -37 16 -16 17 -16 17 -1 0 23 24 29
130 33 99 4 106 -2 66 -44 -23 -25 -24 -29 -16 -101 17 -139 24 -370 12 -370
-6 0 -13 8 -15 18 -2 9 -2 1 0 -18 6 -46 11 -52 34 -45 12 4 21 1 25 -9 3 -9
10 -14 15 -11 10 7 63 85 89 133 11 20 30 53 43 73 12 19 49 79 82 132 l60 97
91 0 c78 0 93 3 109 20 18 20 17 20 -76 21 -52 0 -107 1 -124 1 -54 1 -61 -2
-76 -29 -8 -16 -17 -30 -20 -33 -3 -3 -10 -18 -16 -35 -5 -16 -16 -30 -24 -30
-8 0 -13 -8 -13 -18 1 -9 -11 -26 -26 -37 l-28 -20 -11 133 c-7 72 -14 147
-17 165 l-5 32 -143 0 c-131 0 -144 -2 -161 -20z m359 -325 c-9 -14 -18 -25
-20 -25 -2 0 2 11 8 25 6 14 15 25 20 25 5 0 1 -11 -8 -25z"/>
<path d="M4350 7805 c-22 -58 -23 -73 -3 -72 10 1 22 14 28 32 l10 30 103 3
103 3 -2 -33 c-2 -18 2 -42 8 -53 6 -11 27 -69 47 -130 21 -60 44 -120 52
-132 8 -12 14 -29 14 -38 0 -9 7 -18 16 -22 12 -4 33 11 70 51 30 32 54 59 54
62 0 3 12 17 28 33 15 15 46 49 70 74 l42 47 99 0 c76 0 101 3 111 15 7 9 10
18 7 21 -3 3 -66 5 -141 5 l-137 0 7 37 c10 60 31 69 138 64 94 -4 116 -12
116 -42 0 -14 18 -30 33 -30 1 0 0 22 -1 50 l-4 50 -143 0 -142 0 -114 -126
c-69 -77 -115 -121 -117 -113 -3 8 -23 65 -44 127 l-40 112 -129 0 -129 0 -10
-25z m549 -145 c-13 -16 -25 -28 -27 -25 -5 5 37 55 45 55 2 0 -6 -13 -18 -30z
m-69 -80 c-31 -39 -50 -57 -50 -46 0 6 72 86 78 86 2 0 -11 -18 -28 -40z m-60
-70 c0 -5 -5 -10 -11 -10 -5 0 -7 5 -4 10 3 6 8 10 11 10 2 0 4 -4 4 -10z
m-20 -24 c0 -2 -7 -9 -15 -16 -13 -11 -14 -10 -9 4 5 14 24 23 24 12z"/>
<path d="M7801 7731 c-7 -12 -18 -17 -30 -14 -14 3 -20 -2 -25 -23 -4 -16 -16
-34 -27 -42 -20 -14 -26 -47 -9 -57 16 -10 11 -41 -10 -60 -10 -9 -41 -19 -67
-22 -28 -2 -82 -21 -128 -44 -44 -21 -101 -42 -127 -45 -42 -6 -49 -4 -72 21
-17 18 -24 35 -20 47 3 10 1 18 -4 18 -4 0 -32 23 -60 52 -28 28 -55 49 -58
45 -7 -7 36 -138 48 -147 4 -3 6 -15 6 -27 -1 -11 6 -39 16 -60 17 -39 17 -42
-1 -79 -28 -57 -83 -155 -104 -186 -11 -14 -19 -29 -19 -31 0 -15 127 5 152
23 15 11 34 20 42 20 8 0 64 50 123 110 59 61 112 110 117 110 5 0 14 7 20 15
15 20 51 29 106 25 84 -7 220 -2 220 8 0 1 -17 21 -39 45 -42 46 -70 105 -36
77 10 -8 20 -14 22 -12 10 7 23 -2 44 -32 13 -19 27 -32 31 -30 5 3 11 -1 14
-9 3 -8 16 -14 30 -14 37 0 28 38 -13 57 -18 8 -31 20 -28 27 2 7 0 15 -4 18
-24 14 -71 119 -77 170 -8 61 -18 76 -33 46z"/>
<path d="M6380 7709 c-57 -16 -113 -42 -147 -67 -83 -62 -115 -211 -61 -285
11 -15 12 -9 10 38 -8 114 80 220 216 260 68 20 215 21 284 2 29 -8 66 -18 83
-22 l30 -7 -25 20 c-65 51 -298 88 -390 61z"/>
<path d="M1885 7690 c-3 -5 -2 -10 4 -10 5 0 13 5 16 10 3 6 2 10 -4 10 -5 0
-13 -4 -16 -10z"/>
<path d="M2700 7685 c0 -19 33 -27 105 -23 48 2 60 7 63 21 3 15 -6 17 -82 17
-69 0 -86 -3 -86 -15z"/>
<path d="M7550 7620 c0 -5 -7 -10 -15 -10 -20 0 -20 -49 0 -56 8 -4 12 -10 9
-15 -3 -5 0 -9 5 -9 6 0 11 4 11 8 0 4 20 14 46 21 40 12 45 16 42 40 -4 32
-33 36 -32 4 1 -30 -10 -29 -30 2 -17 25 -36 33 -36 15z"/>
<path d="M7440 7510 c8 -5 20 -10 25 -10 6 0 3 5 -5 10 -8 5 -19 10 -25 10 -5
0 -3 -5 5 -10z"/>
<path d="M7410 7500 c8 -5 20 -10 25 -10 6 0 3 5 -5 10 -8 5 -19 10 -25 10 -5
0 -3 -5 5 -10z"/>
<path d="M2672 7436 c-5 -33 -13 -72 -16 -86 -12 -49 -17 -96 -8 -76 8 18 9
18 15 2 12 -31 8 -143 -8 -203 -8 -31 -14 -66 -14 -78 1 -20 1 -20 6 0 14 60
25 97 28 93 2 -2 9 -35 15 -73 11 -71 21 -92 38 -81 5 3 6 25 1 53 -29 172
-32 251 -15 332 20 94 15 166 -14 174 -15 4 -20 -5 -28 -57z"/>
<path d="M7340 7489 c0 -5 5 -7 10 -4 6 3 10 8 10 11 0 2 -4 4 -10 4 -5 0 -10
-5 -10 -11z"/>
<path d="M6430 7486 c0 -2 7 -6 15 -10 8 -3 15 -1 15 4 0 6 -7 10 -15 10 -8 0
-15 -2 -15 -4z"/>
<path d="M6520 7477 l-44 -9 38 -19 c21 -10 43 -16 49 -12 5 3 7 2 4 -4 -4 -6
9 -19 28 -29 19 -10 35 -22 35 -26 0 -11 -11 -10 -41 5 -33 18 -119 47 -137
47 -11 0 -12 -3 -4 -13 11 -12 62 -35 164 -72 43 -16 47 -20 50 -54 2 -20 6
-35 11 -33 4 1 7 5 6 8 0 4 5 11 13 15 11 8 11 10 0 18 -10 6 -12 24 -8 67 3
33 2 48 -2 36 -7 -23 -8 -23 -23 -5 -9 10 -22 28 -28 40 -19 37 -59 51 -111
40z"/>
<path d="M7375 7480 c3 -5 10 -10 16 -10 5 0 9 5 9 10 0 6 -7 10 -16 10 -8 0
-12 -4 -9 -10z"/>
<path d="M6754 7443 c-11 -25 -18 -32 -24 -24 -9 15 -30 -38 -30 -77 0 -20 3
-22 14 -13 40 34 29 -115 -23 -308 -7 -23 -10 -45 -7 -49 3 -3 20 -1 38 4 25
7 33 16 34 34 1 14 -5 33 -13 42 -17 19 -16 31 16 176 16 77 26 252 13 252 -2
0 -10 -17 -18 -37z"/>
<path d="M5695 7453 c14 -11 16 -17 7 -20 -9 -4 -10 -9 -2 -18 14 -16 -11 -60
-54 -95 -38 -31 -113 -35 -143 -7 -23 20 -33 13 -33 -24 0 -15 -4 -31 -10 -34
-6 -4 -10 16 -11 52 -1 56 -2 57 -9 18 -17 -89 13 -156 93 -207 45 -29 60 -33
119 -33 59 0 70 3 105 31 55 44 83 104 83 179 -1 33 -7 71 -14 84 -13 23 -13
22 -20 -25 -10 -75 -26 -90 -26 -26 0 78 -19 115 -66 129 -36 11 -38 11 -19
-4z m-64 -206 c15 -12 29 -34 33 -49 5 -24 3 -28 -21 -34 -16 -3 -34 -8 -41
-10 -18 -5 -83 26 -77 36 3 5 1 11 -4 14 -17 11 1 45 28 55 39 14 54 12 82
-12z"/>
<path d="M7990 7416 c0 -8 -3 -22 -7 -32 -5 -12 -3 -15 6 -9 9 5 23 -4 42 -26
26 -31 30 -32 44 -18 15 14 13 18 -19 43 -20 15 -36 34 -36 42 0 7 -7 14 -15
14 -8 0 -15 -6 -15 -14z"/>
<path d="M3778 7358 c-3 -7 -3 -40 0 -74 4 -54 2 -62 -14 -66 -21 -5 -135 0
-141 6 -3 2 0 15 7 28 l11 23 -21 -24 c-27 -31 -22 -54 15 -66 17 -5 37 -14
45 -20 16 -10 93 -15 124 -7 17 4 18 11 12 89 -6 80 -28 142 -38 111z"/>
<path d="M5100 7328 c-7 -23 -16 -54 -21 -68 -13 -39 -79 -299 -79 -311 0 -5
4 -8 8 -5 13 8 116 416 107 424 -2 2 -9 -16 -15 -40z"/>
<path d="M7210 7363 c0 -15 18 -35 23 -27 3 5 -1 15 -9 22 -8 7 -14 9 -14 5z"/>
<path d="M4451 7314 c0 -11 3 -14 6 -6 3 7 2 16 -1 19 -3 4 -6 -2 -5 -13z"/>
<path d="M4405 7148 c-46 -173 -54 -208 -49 -208 13 0 73 206 89 308 13 79 -2
42 -40 -100z"/>
<path d="M4780 7270 c-12 -7 -10 -9 7 -7 12 0 19 5 17 9 -6 10 -6 10 -24 -2z"/>
<path d="M8188 7245 c4 -25 34 -50 45 -38 4 3 13 0 22 -7 9 -7 19 -10 22 -6
11 11 -12 41 -33 42 -34 2 -37 4 -24 19 10 13 9 15 -12 15 -22 0 -25 -4 -20
-25z"/>
<path d="M8422 7130 c-12 -16 -28 -27 -35 -24 -15 5 -20 -33 -8 -61 33 -79 52
-115 61 -115 5 0 10 -9 10 -20 0 -12 7 -20 16 -20 14 0 14 3 4 15 -7 8 -8 15
-3 15 14 0 50 -44 46 -57 -2 -6 1 -14 6 -18 6 -3 11 -15 11 -26 0 -10 4 -19
10 -19 5 0 25 -17 45 -37 20 -21 47 -49 60 -63 14 -14 25 -33 25 -42 0 -25 20
-32 34 -13 10 14 17 15 33 6 21 -11 77 -93 94 -137 4 -13 13 -24 19 -24 6 0
10 -25 10 -58 0 -32 5 -63 12 -70 9 -9 9 -18 -1 -39 -7 -15 -14 -50 -17 -79
-5 -52 -4 -53 28 -70 25 -14 29 -19 16 -22 -30 -6 -21 -15 45 -49 71 -37 82
-40 73 -17 -4 9 1 28 9 41 14 21 14 24 0 29 -19 8 -20 34 -1 34 8 0 17 7 20
16 9 23 8 24 -10 17 -14 -5 -16 -2 -10 22 5 19 2 33 -10 46 -10 11 -12 19 -6
19 19 0 14 35 -8 55 -11 10 -20 24 -20 30 0 7 -7 18 -15 25 -8 7 -15 22 -15
34 0 12 -9 27 -20 34 -15 9 -19 19 -14 37 4 17 2 25 -7 26 -63 3 -74 13 -125
119 -17 36 -52 85 -78 109 -43 43 -45 46 -29 64 15 16 15 19 3 27 -8 6 -20 10
-27 10 -6 0 -38 29 -69 65 -32 36 -66 65 -76 65 -18 0 -58 29 -58 42 0 5 7 8
15 8 18 0 20 27 3 32 -7 3 -11 18 -10 36 3 39 -6 40 -36 2z"/>
<path d="M6590 6983 c-17 -33 -21 -48 -12 -51 6 -2 12 -14 12 -28 0 -17 4 -22
16 -17 14 5 16 17 11 64 -3 35 -1 61 6 68 6 6 7 11 1 11 -5 0 -20 -21 -34 -47z"/>
<path d="M2544 6914 c-5 -26 -2 -40 10 -52 15 -15 16 -12 16 36 0 60 -16 69
-26 16z"/>
<path d="M3303 6933 c15 -2 39 -2 55 0 15 2 2 4 -28 4 -30 0 -43 -2 -27 -4z"/>
<path d="M3253 6913 c31 -2 83 -2 115 0 31 2 5 3 -58 3 -63 0 -89 -1 -57 -3z"/>
<path d="M6580 6861 c0 -6 5 -13 10 -16 6 -3 10 1 10 9 0 9 -4 16 -10 16 -5 0
-10 -4 -10 -9z"/>
<path d="M4500 6636 c-142 -41 -220 -131 -220 -253 0 -53 23 -113 43 -113 5 0
4 7 -3 15 -18 21 -8 92 21 150 28 55 84 105 155 137 72 32 241 37 342 10 96
-26 90 -7 -9 32 -61 24 -92 30 -179 32 -66 2 -122 -1 -150 -10z"/>
<path d="M3594 6632 c-6 -4 -33 -83 -59 -177 -26 -93 -58 -198 -71 -232 -38
-100 -106 -342 -99 -353 3 -6 19 -10 35 -10 24 0 29 5 35 33 4 17 14 52 22 77
8 25 27 95 43 155 52 203 108 410 119 438 l11 27 294 0 c282 0 296 1 306 19 5
11 10 22 10 25 0 9 -633 7 -646 -2z"/>
<path d="M5054 6628 c-12 -18 -53 -182 -48 -190 3 -4 15 -2 28 3 19 9 27 25
38 78 l14 66 329 3 c335 2 344 3 345 40 0 17 -696 17 -706 0z"/>
<path d="M8705 6611 c-10 -17 25 -101 42 -101 11 0 13 7 9 25 -10 39 -43 88
-51 76z"/>
<path d="M7276 6547 c3 -10 9 -15 12 -12 3 3 0 11 -7 18 -10 9 -11 8 -5 -6z"/>
<path d="M4977 6510 c-12 -18 -13 -60 -1 -60 5 0 24 73 20 78 -2 2 -11 -6 -19
-18z"/>
<path d="M4555 6410 c-3 -5 0 -10 9 -10 8 0 23 -3 33 -6 15 -5 16 -4 3 6 -12
9 -3 10 40 5 40 -4 51 -3 40 4 -19 14 -117 14 -125 1z"/>
<path d="M5143 6408 c-9 -12 -64 -201 -97 -337 -14 -53 -14 -74 -4 -130 13
-71 20 -81 58 -81 24 0 28 8 68 148 78 269 96 350 82 367 -18 21 -26 11 -54
-70 -27 -77 -34 -61 -11 25 21 77 20 90 -9 90 -13 0 -28 -6 -33 -12z"/>
<path d="M6927 6406 l-49 -11 41 -37 c22 -20 42 -42 43 -49 2 -8 14 -16 28
-19 25 -6 25 -6 4 -18 -23 -12 -165 -19 -183 -8 -7 4 -9 1 -5 -8 3 -8 16 -17
30 -20 13 -4 24 -11 24 -16 0 -6 37 -10 89 -10 74 0 92 3 115 21 40 32 49 54
36 94 -12 38 -24 44 -34 19 -8 -22 -22 -10 -29 26 -4 18 -13 30 -22 30 -8 0
-15 5 -15 10 0 12 -9 11 -73 -4z"/>
<path d="M4135 6401 c-3 -6 -3 -11 2 -12 4 0 -1 -4 -12 -8 -19 -8 -19 -8 4
-20 25 -14 37 -7 43 24 3 21 -25 34 -37 16z"/>
<path d="M4709 6389 c-10 -6 -10 -9 -1 -9 6 0 12 -5 12 -11 0 -5 -5 -7 -10 -4
-22 14 -70 23 -70 14 0 -5 7 -9 15 -9 19 0 85 -32 85 -41 0 -4 9 -9 20 -12 11
-3 20 -10 20 -16 0 -6 -21 -2 -52 10 -134 53 -164 60 -133 30 11 -10 54 -31
95 -46 148 -52 171 -76 172 -177 1 -95 -52 -177 -147 -227 -41 -21 -35 -27 25
-22 43 3 -52 -37 -120 -50 -58 -11 -157 -9 -256 7 -33 5 -41 3 -41 -10 0 -9 5
-16 11 -16 6 0 4 -5 -4 -10 -12 -8 -12 -10 5 -11 l20 0 -20 -9 c-16 -7 -17 -9
-3 -9 9 -1 20 -6 24 -13 4 -7 3 -8 -4 -4 -15 9 -15 1 0 -41 7 -18 16 -33 20
-33 4 0 8 -7 8 -15 0 -21 13 -19 28 5 24 40 30 9 11 -62 -20 -80 -25 -137 -5
-77 16 49 45 91 58 83 7 -5 8 -3 4 5 -5 7 0 21 10 32 17 19 33 19 493 17 395
-1 480 -4 498 -16 13 -8 21 -18 18 -22 -4 -6 36 -30 50 -30 9 0 5 20 -12 60
l-17 39 -81 -3 c-44 -2 -90 0 -102 5 -20 7 -22 11 -12 36 6 15 13 39 16 53 2
14 8 27 14 28 5 2 9 8 9 13 0 12 -201 12 -232 0 -19 -7 -23 -15 -22 -52 1 -24
3 -51 5 -58 6 -22 -87 -35 -188 -26 -72 6 -84 9 -78 23 3 9 8 44 11 77 5 55
23 152 40 215 7 24 6 24 -20 -5 l-27 -30 11 29 c31 84 41 266 19 334 -9 29
-15 33 -35 28 -15 -4 -41 2 -72 18 -33 17 -53 22 -63 15z m-309 -699 c8 -5 11
-12 8 -16 -10 -9 -38 3 -38 16 0 12 10 13 30 0z"/>
<path d="M3798 6333 c-14 -4 -15 -8 -5 -24 11 -17 24 -19 159 -19 134 0 148
-2 149 -17 0 -10 6 -2 13 17 8 19 12 38 9 42 -4 7 -296 8 -325 1z"/>
<path d="M4147 6263 c-13 -38 -32 -94 -41 -125 l-17 -58 -162 -1 c-89 0 -183
-2 -209 -4 -27 -1 -48 0 -48 4 0 25 23 80 31 75 9 -5 381 -6 385 -1 0 1 4 20
6 42 5 37 5 38 -5 13 l-11 -28 -175 0 c-97 0 -186 -3 -198 -6 -16 -4 -27 -21
-38 -55 -20 -59 -15 -79 20 -79 14 0 28 -7 31 -15 5 -13 34 -15 176 -15 l171
0 -7 -27 c-3 -16 -10 -45 -15 -65 -17 -71 6 -38 28 40 30 104 32 109 38 95 2
-7 -3 -40 -13 -75 -9 -35 -19 -81 -23 -103 l-6 -40 -240 -6 c-132 -3 -240 -6
-241 -7 0 -1 1 -19 2 -39 1 -21 3 -60 5 -88 3 -62 25 -105 55 -105 12 0 25 -6
27 -12 4 -10 6 -10 6 0 1 7 16 12 40 12 22 0 42 -5 44 -12 4 -10 6 -10 6 0 1
6 9 12 19 12 20 1 68 38 59 46 -6 6 16 34 26 34 3 0 0 -16 -6 -35 -6 -19 -8
-37 -5 -40 9 -10 58 14 58 28 0 27 50 37 190 37 l140 0 6 -27 c7 -27 20 -43
37 -43 8 0 20 28 31 72 l6 27 -90 0 c-50 -1 -93 1 -96 4 -3 2 4 22 15 43 13
26 21 64 23 111 3 69 4 71 23 59 40 -25 106 -46 121 -38 11 6 -3 17 -51 42
-36 18 -65 40 -65 47 0 7 3 13 8 13 4 0 29 27 55 59 l49 59 87 -45 c90 -45
171 -63 225 -49 30 7 32 23 12 80 -16 45 -42 67 -106 89 -25 8 -54 19 -65 23
l-20 7 20 -17 c19 -15 17 -15 -20 0 -22 9 -52 22 -67 30 -16 7 -28 9 -28 5 0
-7 109 -61 123 -61 4 0 31 -11 61 -25 30 -14 60 -25 65 -25 6 0 11 -5 11 -11
0 -6 -6 -9 -14 -6 -8 3 -17 -1 -20 -9 -8 -20 -56 -18 -118 6 -41 15 -54 25
-54 40 0 11 4 20 8 20 4 0 8 5 8 11 0 6 -6 9 -13 6 -8 -3 -26 5 -40 16 -14 12
-39 33 -56 47 -17 14 -31 30 -31 37 0 20 -12 15 -49 -19 -27 -25 -32 -27 -27
-11 7 22 -20 103 -34 103 -5 0 -19 -30 -33 -67z m-390 -99 c-3 -3 -12 -4 -19
-1 -8 3 -5 6 6 6 11 1 17 -2 13 -5z"/>
<path d="M2736 6231 c8 -86 4 -91 -76 -91 -70 0 -86 9 -70 40 6 12 10 24 7 26
-2 2 -12 -11 -22 -30 -15 -28 -16 -37 -6 -50 7 -8 19 -12 26 -10 7 3 23 -4 34
-15 17 -17 34 -21 80 -21 33 0 63 5 66 11 4 5 4 46 0 90 -5 56 -13 86 -26 102
-19 22 -19 22 -13 -52z"/>
<path d="M5418 6280 c-5 -23 -17 -66 -82 -310 -29 -108 -31 -126 -11 -89 21
39 109 392 102 412 -2 7 -6 1 -9 -13z"/>
<path d="M6106 6228 c4 -49 3 -78 -4 -78 -10 0 -22 55 -22 108 0 35 -15 39
-34 9 -8 -12 -5 -28 12 -62 l22 -45 -28 -1 -27 -1 30 -8 c25 -6 21 -8 -25 -9
-69 -1 -90 10 -72 39 7 11 8 20 4 20 -14 0 -35 -48 -29 -64 4 -9 16 -16 27
-16 11 0 28 -9 37 -20 14 -16 30 -20 87 -20 l69 0 -7 53 c-3 28 -6 68 -6 88 0
22 -8 46 -20 60 l-21 24 7 -77z"/>
<path d="M2681 6272 c-7 -13 -11 -26 -8 -28 8 -8 29 25 25 38 -3 8 -9 4 -17
-10z"/>
<path d="M7275 6279 c-4 -6 -5 -12 -2 -15 2 -3 7 2 10 11 7 17 1 20 -8 4z"/>
<path d="M7230 6210 c0 -5 5 -10 10 -10 6 0 10 5 10 10 0 6 -4 10 -10 10 -5 0
-10 -4 -10 -10z"/>
<path d="M4410 6206 c0 -2 9 -6 20 -9 11 -3 18 -1 14 4 -5 9 -34 13 -34 5z"/>
<path d="M7148 6161 c-79 -42 -84 -46 -71 -63 5 -7 29 -64 53 -125 33 -85 49
-113 62 -113 10 0 18 6 18 14 0 22 -88 220 -100 224 -20 7 -10 20 16 20 43 0
133 72 97 78 -4 0 -38 -15 -75 -35z"/>
<path d="M2688 6153 c7 -3 16 -2 19 1 4 3 -2 6 -13 5 -11 0 -14 -3 -6 -6z"/>
<path d="M5405 6063 c-26 -87 -55 -205 -55 -217 1 -6 8 2 16 17 9 16 13 35 10
43 -3 8 -2 14 3 14 5 0 11 15 14 33 2 17 12 61 21 95 22 80 14 94 -9 15z"/>
<path d="M6746 6088 c-15 -47 -56 -201 -56 -209 0 -6 4 -8 9 -5 5 3 19 43 31
88 12 46 26 90 31 98 15 27 11 -18 -10 -99 -11 -42 -22 -88 -25 -102 -7 -35
-34 -39 -227 -33 -90 3 -160 1 -168 -4 -17 -12 -16 -180 1 -229 11 -31 33 -40
79 -35 8 1 -1 -37 -52 -226 -41 -150 -46 -191 -29 -220 6 -9 23 -49 39 -89 16
-44 38 -81 54 -93 28 -22 47 -20 47 6 0 9 15 70 34 137 19 67 50 185 71 262
54 209 26 185 224 185 174 0 181 2 181 41 0 6 -79 8 -197 7 l-197 -3 -8 -35
c-8 -32 -67 -246 -120 -440 -23 -80 -37 -115 -44 -107 -7 6 138 566 152 589 4
5 -3 23 -15 39 -32 43 -27 49 35 42 31 -3 54 -1 51 3 -3 5 38 6 91 3 54 -4
112 -7 130 -8 19 -1 31 -5 27 -11 -3 -5 1 -10 10 -10 11 0 15 -5 12 -14 -4
-10 4 -15 29 -18 42 -5 42 0 4 37 -33 32 -38 53 -14 62 8 3 13 12 10 19 -3 7
3 18 12 23 9 6 13 11 9 11 -5 0 1 12 12 26 29 36 27 41 -18 48 -36 5 -39 9
-50 53 -7 25 -23 72 -37 104 -13 32 -24 66 -23 76 0 10 11 -11 25 -47 30 -83
64 -150 75 -150 9 0 -34 126 -67 195 -18 38 -21 40 -72 43 -36 2 -53 -1 -56
-10z m-131 -338 c-3 -5 0 -10 7 -10 8 0 15 -12 16 -26 2 -24 0 -25 -41 -22
-47 3 -58 26 -19 43 12 5 22 13 22 17 0 5 5 8 11 8 5 0 7 -4 4 -10z"/>
<path d="M9048 6073 c7 -3 16 -2 19 1 4 3 -2 6 -13 5 -11 0 -14 -3 -6 -6z"/>
<path d="M9002 6015 c-11 -14 -25 -25 -31 -25 -6 0 -11 -4 -11 -10 0 -5 13
-10 30 -10 30 0 50 22 50 54 0 23 -16 19 -38 -9z"/>
<path d="M5790 5933 c-17 -26 -30 -52 -30 -57 0 -6 4 -5 9 2 6 11 10 11 19 0
7 -10 6 -18 -4 -33 -12 -15 -27 -20 -67 -20 -139 -2 -170 -5 -160 -17 6 -7 9
-21 8 -30 -2 -10 0 -18 3 -18 4 0 6 -25 5 -55 0 -30 3 -58 8 -61 5 -3 7 -10 4
-15 -4 -5 1 -12 9 -15 9 -3 16 -10 16 -16 0 -5 -4 -6 -10 -3 -5 3 -7 0 -4 -8
6 -17 -57 -275 -135 -544 -33 -114 -71 -255 -85 -313 -13 -58 -36 -144 -50
-192 -25 -87 -25 -88 -9 -165 9 -43 18 -80 20 -82 2 -3 10 4 18 15 13 17 14
17 15 2 0 -24 36 -23 49 1 6 10 15 36 20 57 5 22 16 64 25 94 9 30 34 125 57
210 71 268 94 358 166 620 30 113 56 210 57 215 0 6 72 12 181 15 177 5 180 5
183 28 l3 22 -199 0 -199 0 -12 -42 c-43 -162 -114 -420 -140 -507 -29 -98
-41 -128 -41 -105 0 17 69 292 121 482 38 137 49 194 44 220 -6 34 -6 34 24
30 16 -2 28 -2 26 1 -2 3 58 5 133 3 133 -3 138 -4 158 -29 17 -20 30 -25 63
-25 27 1 44 -4 50 -15 11 -20 56 -11 67 14 4 10 10 64 13 120 7 114 7 113 -60
113 -37 0 -39 1 -39 33 0 17 -3 42 -6 55 -4 13 -2 22 5 22 6 0 11 -11 11 -24
0 -35 10 -56 26 -56 17 0 16 -1 5 36 -5 16 -12 41 -15 57 l-6 27 -160 0 -160
0 -30 -47z m15 -43 c3 -5 1 -10 -4 -10 -6 0 -11 5 -11 10 0 6 2 10 4 10 3 0 8
-4 11 -10z m139 -151 c9 -17 13 -35 10 -40 -6 -11 -66 -10 -109 1 -28 7 -28 8
-5 9 14 0 33 9 42 19 18 19 42 41 45 42 1 0 9 -14 17 -31z"/>
<path d="M7068 5863 c18 -2 45 -2 60 0 15 2 0 4 -33 4 -33 0 -45 -2 -27 -4z"/>
<path d="M3578 5843 c7 -3 16 -2 19 1 4 3 -2 6 -13 5 -11 0 -14 -3 -6 -6z"/>
<path d="M3628 5843 c12 -2 30 -2 40 0 9 3 -1 5 -23 4 -22 0 -30 -2 -17 -4z"/>
<path d="M3768 5843 c7 -3 16 -2 19 1 4 3 -2 6 -13 5 -11 0 -14 -3 -6 -6z"/>
<path d="M6298 5843 c7 -3 16 -2 19 1 4 3 -2 6 -13 5 -11 0 -14 -3 -6 -6z"/>
<path d="M6338 5843 c7 -3 16 -2 19 1 4 3 -2 6 -13 5 -11 0 -14 -3 -6 -6z"/>
<path d="M7003 5843 c37 -2 97 -2 135 0 37 2 6 3 -68 3 -74 0 -105 -1 -67 -3z"/>
<path d="M2538 5564 c-3 -5 -40 -136 -83 -292 -67 -243 -76 -285 -64 -297 29
-29 37 -10 110 270 15 61 38 147 50 193 l22 83 386 -4 c386 -4 417 -6 504 -42
9 -4 17 -3 17 3 0 6 -21 20 -47 33 -97 47 -137 51 -524 56 -202 3 -369 1 -371
-3z"/>
<path d="M4411 5413 c-63 -236 -125 -440 -129 -423 -2 12 22 112 64 270 4 17
3 22 -3 15 -6 -5 -16 -31 -23 -57 -15 -57 -30 -63 -30 -13 0 20 -10 55 -21 78
l-22 42 -34 -115 c-19 -63 -51 -178 -73 -255 -21 -77 -65 -234 -98 -350 -33
-115 -66 -238 -73 -273 l-14 -64 -110 -3 c-60 -1 -123 -7 -140 -13 -16 -6 -25
-11 -20 -11 6 -1 11 -27 13 -58 4 -91 13 -135 35 -174 20 -34 23 -36 56 -28
20 5 45 6 56 3 16 -4 17 -3 5 5 -18 12 24 13 105 3 43 -6 52 -4 72 15 25 26
56 92 83 177 21 65 19 76 -11 76 -23 0 -26 32 -4 50 12 10 15 10 15 -4 0 -40
56 -4 66 42 5 25 33 131 69 262 21 76 90 332 126 465 16 61 49 184 72 275 l42
165 514 3 c397 2 517 5 523 15 24 37 24 37 -530 37 l-538 0 -43 -157z m-134
-465 c-3 -8 -6 -5 -6 6 -1 11 2 17 5 13 3 -3 4 -12 1 -19z m-490 -954 c-3 -3
-12 -4 -19 -1 -8 3 -5 6 6 6 11 1 17 -2 13 -5z"/>
<path d="M4391 5464 c0 -11 3 -14 6 -6 3 7 2 16 -1 19 -3 4 -6 -2 -5 -13z"/>
<path d="M4371 5384 c0 -11 3 -14 6 -6 3 7 2 16 -1 19 -3 4 -6 -2 -5 -13z"/>
<path d="M4351 5314 c0 -11 3 -14 6 -6 3 7 2 16 -1 19 -3 4 -6 -2 -5 -13z"/>
<path d="M2855 5173 c-10 -40 -16 -75 -13 -78 2 -3 19 15 37 40 36 50 67 72
73 53 3 -9 32 -12 96 -11 l92 1 0 -27 c0 -15 -5 -32 -11 -38 -9 -9 -6 -10 12
-6 22 6 22 4 -6 -18 -26 -22 -41 -24 -140 -27 -144 -3 -159 -7 -145 -32 10
-18 22 -20 149 -20 127 0 141 2 172 23 42 28 62 68 54 107 -9 40 -23 47 -35
16 -12 -34 -28 -33 -35 2 -13 61 -29 69 -135 71 -36 1 -83 5 -106 10 l-41 8
-18 -74z"/>
<path d="M5320 5200 c-12 -8 -12 -10 -1 -10 10 0 12 -10 8 -39 -5 -41 3 -51
44 -51 24 0 24 -17 -1 -114 -11 -42 -18 -81 -15 -87 12 -19 25 -8 26 24 1 17
3 24 6 15 7 -28 22 -21 21 10 0 15 3 42 7 61 5 20 4 32 -1 28 -5 -3 -7 30 -4
79 l5 84 -27 0 c-14 0 -32 2 -40 5 -7 3 -20 0 -28 -5z"/>
<path d="M888 5095 c13 -9 26 -14 29 -11 8 8 3 12 -27 21 l-25 7 23 -17z"/>
<path d="M940 5103 c8 -3 26 -16 40 -28 25 -22 70 -39 70 -26 0 9 -97 61 -112
60 -8 0 -7 -3 2 -6z"/>
<path d="M4774 5064 c3 -9 6 -20 6 -25 0 -5 116 -9 280 -9 263 0 280 1 289 19
6 10 7 21 4 25 -3 3 -137 6 -296 6 -260 0 -289 -2 -283 -16z"/>
<path d="M5300 4898 c-12 -40 -23 -79 -25 -85 -3 -10 -76 -13 -318 -13 -240 0
-317 -3 -324 -12 -16 -22 -45 -132 -41 -158 2 -19 10 -26 30 -28 14 -2 32 -10
38 -18 10 -12 63 -14 306 -14 162 0 294 -2 294 -4 0 -3 -14 -57 -30 -122 -17
-64 -28 -119 -26 -122 9 -8 36 71 66 187 16 64 34 117 39 119 8 3 8 10 1 23
-22 40 -22 152 -1 234 26 101 19 111 -9 13z m-333 -128 c195 0 303 -4 303 -10
0 -5 -4 -10 -8 -10 -9 0 -6 -65 3 -80 3 -5 -4 -12 -17 -15 -38 -8 -638 -11
-638 -2 0 4 7 37 16 73 12 46 20 62 27 55 7 -7 113 -11 314 -11z"/>
<path d="M10 4950 c8 -5 22 -9 30 -9 10 0 8 3 -5 9 -27 12 -43 12 -25 0z"/>
<path d="M5935 4938 c-40 -122 -165 -590 -164 -615 1 -42 51 120 109 357 35
140 65 257 67 260 2 2 13 -1 23 -8 11 -7 20 -8 20 -3 0 20 -49 27 -55 9z"/>
<path d="M3 4910 c1 -26 7 -36 22 -39 11 -2 24 -9 30 -15 5 -7 36 -20 68 -30
31 -9 57 -21 57 -26 0 -18 126 -45 136 -29 3 5 24 9 47 10 39 0 34 3 -58 35
-55 20 -111 38 -125 41 -14 3 -42 23 -62 44 -36 38 -58 49 -58 29 0 -14 -47
-12 -54 3 -3 6 -4 -4 -3 -23z m77 0 c0 -5 -4 -10 -10 -10 -5 0 -10 5 -10 10 0
6 5 10 10 10 6 0 10 -4 10 -10z m-30 -20 c0 -5 -7 -10 -15 -10 -8 0 -15 5 -15
10 0 6 7 10 15 10 8 0 15 -4 15 -10z"/>
<path d="M4087 4918 c-2 -13 -28 -106 -57 -208 -99 -350 -124 -464 -76 -349
25 60 151 567 143 575 -2 3 -7 -5 -10 -18z"/>
<path d="M480 4904 c0 -8 17 -22 38 -32 20 -9 39 -20 40 -24 2 -5 13 -8 25 -7
18 0 15 4 -14 17 -20 10 -34 22 -32 27 2 6 -10 16 -27 22 -25 9 -30 9 -30 -3z"/>
<path d="M650 4907 c0 -25 35 -53 87 -70 59 -19 77 -21 68 -7 -3 6 -15 10 -26
10 -14 0 -19 7 -19 29 0 16 -7 34 -16 42 -13 11 -14 9 -9 -14 9 -36 -12 -36
-26 -1 -9 26 -10 26 -24 8 -13 -17 -14 -18 -15 -1 0 20 -20 24 -20 4z"/>
<path d="M835 4910 c-7 -11 35 -55 73 -77 11 -6 36 -15 55 -18 33 -6 37 -5 43
19 3 14 3 34 0 43 -6 15 -8 15 -16 3 -8 -13 -11 -12 -23 4 -11 15 -22 18 -50
13 -25 -4 -37 -2 -41 9 -6 16 -32 19 -41 4z"/>
<path d="M6800 4917 c0 -3 -23 -90 -51 -194 -100 -368 -109 -410 -80 -354 25
46 147 539 136 549 -3 3 -5 3 -5 -1z"/>
<path d="M240 4892 c0 -12 3 -12 18 -1 9 7 19 14 21 16 2 1 -6 1 -18 0 -11 -1
-21 -8 -21 -15z"/>
<path d="M300 4880 c0 -6 13 -13 30 -16 16 -4 27 -10 24 -15 -3 -5 6 -9 20 -9
14 0 27 -4 30 -9 3 -4 25 -11 48 -14 24 -2 52 -8 62 -13 13 -5 17 -4 12 4 -3
6 -32 16 -64 23 -31 7 -78 23 -104 36 -53 26 -58 27 -58 13z"/>
<path d="M5341 4874 c0 -11 3 -14 6 -6 3 7 2 16 -1 19 -3 4 -6 -2 -5 -13z"/>
<path d="M6000 4882 c0 -7 6 -27 14 -45 8 -18 30 -70 50 -117 49 -113 30 -91
-43 49 l-58 113 -21 -68 c-12 -38 -35 -121 -51 -184 -17 -63 -34 -126 -37
-139 -6 -18 -4 -22 6 -16 8 5 11 4 6 -3 -4 -6 11 -46 33 -89 21 -43 42 -89 46
-103 4 -14 18 -39 31 -57 13 -17 24 -38 25 -45 0 -7 14 -33 30 -58 16 -25 33
-54 38 -65 5 -11 18 -29 30 -39 11 -11 21 -25 21 -33 0 -10 22 -13 88 -14 48
-1 96 -3 107 -4 11 -1 44 -4 73 -6 50 -4 54 -2 70 26 9 17 20 32 23 35 3 3 18
43 33 90 15 47 30 92 33 100 19 47 8 52 -137 56 -58 1 -117 3 -132 3 -23 1
-29 8 -43 52 -9 28 -15 52 -13 54 2 2 15 -14 28 -35 14 -22 28 -40 32 -40 7 0
-34 89 -158 348 -35 73 -64 135 -64 138 0 3 -13 28 -30 57 -16 29 -30 46 -30
39z"/>
<path d="M2 4808 c3 -49 5 -53 28 -54 14 -1 38 -7 53 -13 34 -13 77 -15 77 -2
0 15 -71 70 -106 81 -19 7 -34 18 -34 26 0 8 -5 14 -11 14 -6 0 -9 -21 -7 -52z"/>
<path d="M1116 4851 c-27 -10 -4 -23 27 -16 15 4 30 1 40 -9 8 -9 21 -16 29
-16 7 0 4 8 -9 22 -23 23 -56 30 -87 19z"/>
<path d="M1248 4830 c5 -13 14 -26 20 -28 19 -6 14 13 -8 33 -20 18 -21 18
-12 -5z"/>
<path d="M2705 4778 c-10 -27 -13 -44 -6 -51 6 -6 12 4 17 29 8 49 14 59 24
44 5 -7 2 -35 -6 -62 -23 -77 -3 -91 40 -29 30 43 52 56 70 43 17 -14 104 -12
142 4 47 20 71 18 85 -7 15 -28 -3 -48 -26 -29 -13 11 -15 10 -9 -3 3 -8 -2
-27 -11 -40 -26 -40 -74 -57 -159 -57 l-76 0 0 -27 c0 -16 4 -33 8 -39 9 -15
119 -17 197 -4 49 8 66 16 93 45 37 40 39 61 14 126 -34 89 -60 100 -243 98
l-138 -1 -16 -40z"/>
<path d="M5321 4804 c0 -11 3 -14 6 -6 3 7 2 16 -1 19 -3 4 -6 -2 -5 -13z"/>
<path d="M1330 4794 c0 -21 80 -56 97 -43 10 9 13 8 13 0 0 -15 25 -41 39 -41
12 0 0 25 -30 67 -14 19 -18 20 -23 8 -7 -20 -24 -19 -28 1 -4 21 -68 28 -68
8z"/>
<path d="M1937 4772 c-9 -10 -17 -25 -17 -33 0 -22 -77 -94 -82 -77 -4 10 -8
11 -20 1 -17 -15 -28 -7 -28 19 0 10 -7 18 -15 18 -8 0 -15 -9 -15 -20 0 -32
-20 -23 -36 16 -12 29 -17 34 -29 24 -8 -7 -15 -24 -15 -39 -1 -29 2 -31 -50
39 -21 28 -32 23 -32 -15 0 -21 -3 -23 -15 -13 -10 8 -11 14 -4 16 21 7 11 22
-29 42 -21 11 -42 20 -45 20 -12 0 -3 -56 12 -75 13 -16 15 -17 10 -2 -9 26 6
21 38 -13 29 -31 60 -39 67 -18 2 6 15 0 31 -15 27 -28 65 -38 51 -14 -4 6 2
4 13 -5 11 -10 25 -18 31 -18 7 0 12 -5 12 -11 0 -7 11 -8 30 -4 22 5 30 3 30
-7 0 -10 3 -9 10 2 8 13 10 12 10 -2 0 -11 8 -18 19 -18 11 0 23 -5 26 -10 6
-10 86 -50 115 -58 8 -2 31 -6 50 -9 19 -3 38 -12 43 -19 4 -7 14 -11 22 -7 9
3 22 0 30 -7 8 -7 15 -9 15 -5 0 4 6 2 13 -4 8 -6 16 -8 19 -6 3 3 33 -12 66
-35 66 -43 98 -50 105 -22 3 13 6 11 15 -10 17 -41 50 -69 96 -83 23 -7 57
-22 76 -34 19 -12 43 -24 53 -27 9 -4 17 -10 17 -14 0 -4 8 -10 18 -14 9 -3
42 -19 72 -36 30 -16 61 -30 68 -30 21 0 -6 40 -34 50 -13 5 -27 17 -30 25 -4
8 -10 15 -15 15 -5 0 -17 7 -26 16 -36 31 -203 129 -203 118 0 -3 -16 11 -37
31 -20 19 -40 35 -45 35 -27 0 16 54 55 69 35 14 35 31 0 32 -25 0 -26 1 -8 9
19 8 19 9 -2 9 -13 1 -23 6 -23 11 0 18 -63 50 -76 39 -9 -7 -19 -7 -33 0 -11
6 -38 11 -60 11 -54 0 -150 26 -172 46 -13 12 -22 14 -31 7 -14 -12 -52 -1
-63 16 -9 16 -25 13 -25 -4 0 -10 -9 -14 -25 -13 -14 1 -25 7 -25 14 0 20 31
74 48 83 12 7 14 13 6 21 -7 7 -15 5 -27 -8z"/>
<path d="M7655 4743 c11 -29 16 -111 7 -117 -4 -2 -33 -7 -64 -10 -51 -5 -56
-4 -62 17 -9 34 -24 8 -27 -47 -4 -57 13 -72 29 -26 14 38 35 41 26 3 -6 -22
-4 -25 10 -20 10 4 28 7 41 7 17 0 25 6 27 23 4 29 22 29 26 0 3 -20 6 -21 24
-12 17 9 19 17 14 51 -4 22 -13 50 -22 63 -8 12 -14 27 -13 31 4 25 -2 54 -12
54 -7 0 -8 -7 -4 -17z"/>
<path d="M178 4713 c12 -2 30 -2 40 0 9 3 -1 5 -23 4 -22 0 -30 -2 -17 -4z"/>
<path d="M8556 4711 c-17 -6 -17 -8 -4 -14 9 -3 24 1 35 8 14 11 15 14 3 14
-8 0 -24 -4 -34 -8z"/>
<path d="M8843 4664 c-7 -3 -15 -22 -19 -42 -3 -20 -12 -56 -20 -79 -14 -43
-25 -89 -26 -110 -2 -16 7 -18 -79 18 -98 40 -236 75 -331 84 -66 6 -79 5 -84
-9 -5 -12 -8 -13 -19 -3 -10 10 -31 11 -94 4 -44 -6 -81 -13 -81 -17 0 -4 -24
-6 -52 -5 -61 3 -163 -27 -272 -81 -91 -45 -242 -158 -250 -187 -6 -25 -48
-70 -99 -107 -41 -29 -97 -111 -97 -142 0 -13 -9 -38 -20 -56 -11 -18 -20 -38
-20 -46 0 -7 -12 -26 -27 -42 -23 -25 -48 -89 -69 -179 -32 -138 -27 -352 12
-503 29 -115 112 -291 180 -382 143 -192 353 -339 581 -404 100 -28 120 -31
125 -16 2 5 19 7 41 3 28 -4 35 -9 25 -15 -9 -6 -6 -7 9 -3 12 3 24 1 28 -5
16 -26 257 -1 400 42 81 24 168 65 161 77 -3 4 12 16 32 25 43 20 115 68 120
79 2 4 9 7 15 7 7 0 25 16 40 35 15 19 34 35 42 35 8 0 15 6 15 14 0 8 7 17
16 20 24 9 26 8 19 -13 -3 -10 21 -97 54 -199 56 -165 68 -199 92 -257 4 -11
24 -69 44 -130 20 -60 40 -119 45 -130 5 -11 22 -58 37 -105 14 -47 30 -87 33
-90 3 -3 14 -31 24 -62 10 -31 24 -62 32 -69 8 -7 12 -19 9 -27 -3 -8 1 -22 8
-31 8 -9 17 -25 20 -36 8 -29 53 -134 61 -142 3 -3 6 69 6 161 0 147 -2 171
-18 194 -19 27 -157 306 -206 415 -23 51 -53 142 -75 232 -4 17 -13 46 -19 65
-6 19 -21 67 -33 105 -12 39 -26 81 -32 95 -6 14 -10 29 -8 34 1 4 -3 14 -10
22 -9 11 2 33 52 106 144 210 206 446 187 713 -20 284 -140 527 -367 743 -52
49 -72 75 -64 80 7 4 15 26 18 47 3 22 13 58 22 80 8 22 24 69 34 104 21 72
17 80 -36 81 -16 0 -46 2 -65 5 -19 2 -40 2 -47 -1z m-690 -161 c-7 -2 -19 -2
-25 0 -7 3 -2 5 12 5 14 0 19 -2 13 -5z m-163 -93 c0 -5 -4 -10 -10 -10 -5 0
-10 5 -10 10 0 6 5 10 10 10 6 0 10 -4 10 -10z m-173 -126 c-3 -3 -12 -4 -19
-1 -8 3 -5 6 6 6 11 1 17 -2 13 -5z m-260 -50 c-3 -3 -12 -4 -19 -1 -8 3 -5 6
6 6 11 1 17 -2 13 -5z m483 -98 c0 -2 -8 -10 -17 -17 -16 -13 -17 -12 -4 4 13
16 21 21 21 13z m-507 -23 c-7 -2 -19 -2 -25 0 -7 3 -2 5 12 5 14 0 19 -2 13
-5z m1218 -121 c82 -40 120 -155 85 -261 -9 -27 -16 -52 -16 -54 0 -2 20 -7
45 -9 55 -7 119 -48 135 -89 32 -76 -18 -179 -86 -179 -76 0 -139 48 -244 189
-41 55 -82 100 -91 101 -21 0 -75 59 -89 95 -9 26 -2 21 46 -30 31 -33 55 -55
52 -50 -2 6 -17 36 -32 69 -38 78 -47 177 -20 207 11 12 28 25 39 30 33 15
127 5 176 -19z m-921 -16 c0 -2 -7 -6 -15 -10 -8 -3 -15 -1 -15 4 0 6 7 10 15
10 8 0 15 -2 15 -4z m-103 -72 c-3 -3 -12 -4 -19 -1 -8 3 -5 6 6 6 11 1 17 -2
13 -5z m-214 -51 c-7 -2 -21 -2 -30 0 -10 3 -4 5 12 5 17 0 24 -2 18 -5z m-50
-113 c32 -26 51 -79 38 -111 -17 -46 -49 -64 -120 -69 l-66 -5 -3 -63 c-2 -44
-7 -62 -15 -59 -8 2 -13 48 -15 152 -1 82 0 155 2 162 4 9 28 13 79 13 59 0
79 -4 100 -20z m717 -14 c0 -34 1 -35 43 -38 23 -2 42 -7 42 -13 0 -5 -19 -11
-42 -13 l-43 -3 0 -89 c0 -80 2 -90 22 -104 12 -9 28 -16 35 -16 19 0 53 74
53 116 0 73 56 124 137 124 82 0 142 -72 128 -154 -16 -104 -153 -149 -231
-75 l-23 21 -35 -71 c-34 -66 -75 -178 -90 -245 l-7 -29 31 27 c34 28 71 34
88 14 5 -7 15 -32 21 -55 14 -50 40 -62 96 -43 27 9 44 25 67 61 27 45 46 58
61 43 3 -3 -2 -26 -11 -50 -23 -61 -11 -71 60 -50 44 12 62 25 101 71 89 102
187 126 187 46 0 -27 -35 -71 -57 -71 -17 0 -16 14 2 50 15 29 15 30 -9 30
-46 0 -108 -84 -92 -125 10 -27 86 -15 189 30 26 11 22 -22 -5 -37 -91 -51
-186 -63 -224 -27 l-23 22 -50 -22 c-60 -25 -108 -27 -133 -4 -18 16 -21 16
-47 0 -42 -25 -103 -22 -128 6 -11 12 -23 34 -27 50 -9 39 -29 34 -77 -23 -45
-53 -68 -62 -76 -30 -7 26 -11 25 -73 -7 -179 -93 -307 20 -220 193 35 70 133
182 184 209 l36 20 0 70 c0 38 -6 81 -13 95 -17 34 -57 47 -97 30 -45 -19 -60
-56 -60 -150 0 -47 -4 -80 -10 -80 -5 0 -11 6 -12 13 -5 41 -6 112 -1 176 5
64 7 72 19 57 12 -17 14 -17 36 -2 26 19 77 21 111 5 34 -16 49 -52 52 -135 3
-61 7 -75 29 -97 28 -28 32 -50 15 -94 -14 -37 -78 -103 -101 -103 -26 0 -22
15 9 40 60 47 84 122 43 135 -26 8 -65 -20 -125 -88 -89 -101 -121 -211 -75
-257 33 -33 122 -28 197 11 55 28 60 34 76 84 13 44 68 186 94 243 3 7 -2 12
-14 12 -42 0 -58 36 -61 135 -4 89 -5 94 -28 99 -32 8 -31 26 1 26 21 0 25 5
25 28 0 16 3 32 7 35 15 15 23 5 23 -27z m-606 -52 c3 -9 6 -52 6 -97 1 -99
12 -117 72 -124 67 -8 82 15 88 133 6 121 24 128 28 12 3 -101 -10 -138 -59
-164 -42 -21 -94 -11 -131 26 -27 28 -28 32 -28 129 0 93 9 124 24 85z m1249
-271 c21 -11 62 -18 115 -20 81 -2 160 -26 176 -52 9 -14 9 -14 -39 4 -22 8
-74 15 -115 15 -118 1 -206 44 -248 119 -33 58 -27 59 29 2 27 -28 65 -59 82
-68z m303 -25 c20 -17 57 -42 82 -55 43 -20 45 -22 19 -23 -33 0 -54 10 -114
56 -33 25 -55 34 -84 34 -21 0 -39 5 -39 10 0 6 22 10 50 10 41 0 55 -5 86
-32z m-508 -40 c-2 -13 -10 -23 -18 -23 -8 0 -16 10 -18 23 -3 17 2 22 18 22
16 0 21 -5 18 -22z m504 -44 c29 -14 78 -30 108 -33 l55 -7 -50 -9 c-46 -7
-56 -5 -120 27 -38 20 -81 41 -95 47 -23 11 -22 11 12 7 21 -3 61 -17 90 -32z
m-910 -349 c-2 -14 -6 -25 -8 -25 -2 0 -4 11 -4 25 0 14 4 25 9 25 4 0 6 -11
3 -25z m36 -35 c0 -9 -3 -7 -8 5 -5 11 -8 29 -8 40 0 16 2 15 8 -5 4 -14 8
-32 8 -40z m137 50 c3 -5 1 -10 -4 -10 -6 0 -11 5 -11 10 0 6 2 10 4 10 3 0 8
-4 11 -10z m53 -35 c-6 -14 -13 -24 -14 -22 -6 6 9 47 17 47 5 0 3 -11 -3 -25z
m92 15 c8 -5 11 -10 5 -10 -5 0 -17 5 -25 10 -8 5 -10 10 -5 10 6 0 17 -5 25
-10z m260 0 c0 -5 -5 -10 -11 -10 -5 0 -7 5 -4 10 3 6 8 10 11 10 2 0 4 -4 4
-10z m40 6 c0 -2 -7 -7 -16 -10 -8 -3 -12 -2 -9 4 6 10 25 14 25 6z m91 -27
c-9 -22 -10 -22 -10 -3 -1 11 2 24 6 27 12 12 14 0 4 -24z m-559 -1 c-7 -7
-12 -8 -12 -2 0 14 12 26 19 19 2 -3 -1 -11 -7 -17z m42 6 c3 -8 2 -12 -4 -9
-6 3 -10 10 -10 16 0 14 7 11 14 -7z m579 -2 c-12 -12 -21 -14 -25 -8 -13 19
-9 26 17 26 24 0 24 -1 8 -18z m-693 -1 c0 -6 -4 -13 -10 -16 -5 -3 -10 1 -10
9 0 9 5 16 10 16 6 0 10 -4 10 -9z m290 0 c0 -6 -4 -13 -10 -16 -5 -3 -10 1
-10 9 0 9 5 16 10 16 6 0 10 -4 10 -9z m280 -1 c0 -5 -4 -10 -10 -10 -5 0 -10
5 -10 10 0 6 5 10 10 10 6 0 10 -4 10 -10z m-333 -32 c-3 -8 -6 -5 -6 6 -1 11
2 17 5 13 3 -3 4 -12 1 -19z m-227 -238 c0 -5 -5 -10 -11 -10 -5 0 -7 5 -4 10
3 6 8 10 11 10 2 0 4 -4 4 -10z m420 -130 c0 -5 -7 -7 -15 -4 -8 4 -15 8 -15
10 0 2 7 4 15 4 8 0 15 -4 15 -10z m-353 -26 c-3 -3 -12 -4 -19 -1 -8 3 -5 6
6 6 11 1 17 -2 13 -5z m343 -4 c8 -5 11 -10 5 -10 -5 0 -17 5 -25 10 -8 5 -10
10 -5 10 6 0 17 -5 25 -10z m-470 -60 c0 -5 -5 -10 -11 -10 -5 0 -7 5 -4 10 3
6 8 10 11 10 2 0 4 -4 4 -10z m-83 -56 c-3 -3 -12 -4 -19 -1 -8 3 -5 6 6 6 11
1 17 -2 13 -5z"/>
<path d="M7317 3733 c-4 -3 -7 -39 -7 -80 l0 -73 48 0 c69 0 88 8 107 44 16
29 16 36 4 62 -8 15 -25 34 -39 41 -26 13 -102 18 -113 6z"/>
<path d="M8371 3653 c-42 -21 -71 -81 -48 -98 9 -7 13 -20 10 -36 -10 -52 80
-89 140 -58 38 19 57 52 57 96 0 84 -83 135 -159 96z"/>
<path d="M7767 4643 c-12 -12 -7 -50 8 -63 12 -10 16 -9 21 4 13 33 -10 79
-29 59z"/>
<path d="M7018 4568 c-21 -11 -38 -24 -38 -29 0 -5 -10 -9 -21 -9 -18 0 -19
-2 -9 -15 7 -8 18 -15 26 -15 7 0 26 -11 41 -25 l28 -25 -44 -40 c-25 -22 -63
-49 -85 -60 -43 -21 -77 -41 -86 -50 -3 -3 -22 -14 -44 -25 -21 -11 -40 -26
-43 -32 -3 -7 -10 -13 -15 -13 -18 0 -96 -77 -89 -88 4 -7 33 5 76 30 110 65
233 128 248 128 8 0 33 20 55 44 26 29 44 40 50 34 11 -11 45 -3 64 15 7 7 37
23 66 37 30 13 58 32 63 41 5 10 18 19 29 21 36 5 27 22 -19 35 -24 7 -49 17
-56 23 -11 9 -79 27 -135 35 -14 2 -42 -6 -62 -17z"/>
<path d="M7356 4565 c-3 -8 -16 -15 -28 -16 -21 -1 -21 -2 5 -12 15 -6 27 -17
27 -25 0 -8 9 -12 23 -10 17 2 21 9 19 28 -1 18 1 21 7 11 6 -10 13 -11 27 -3
17 10 15 12 -18 26 -46 20 -54 20 -62 1z"/>
<path d="M2194 4396 c-3 -7 -4 -35 -2 -62 3 -43 6 -49 23 -46 29 5 36 15 42
59 5 35 2 40 -21 51 -34 15 -35 15 -42 -2z"/>
<path d="M4690 4364 c-130 -20 -172 -30 -180 -44 -14 -26 -23 -128 -15 -177 6
-44 8 -46 21 -28 8 10 14 33 14 51 0 43 19 53 42 23 19 -26 22 -28 69 -73 l30
-29 15 22 c37 52 95 46 119 -14 18 -41 20 -68 5 -45 -8 11 -10 6 -8 -20 4 -68
-2 -100 -17 -100 -8 0 -12 -6 -9 -15 9 -24 -43 -31 -67 -9 -11 10 -18 23 -15
29 2 6 -2 24 -9 40 l-13 30 -1 -31 c-2 -65 67 -125 105 -93 13 10 17 10 25 -2
8 -10 9 -8 4 8 -7 25 20 73 41 73 8 0 14 5 14 11 0 7 10 9 25 5 18 -5 25 -2
25 9 0 19 -66 21 -72 3 -3 -7 -7 -3 -10 9 -5 19 0 22 39 28 24 3 68 3 99 -1
l54 -6 -1 144 c-1 80 -4 150 -8 155 -9 15 -34 21 -155 38 -109 15 -119 16
-166 9z m95 -34 c3 -5 -1 -10 -9 -10 -9 0 -16 5 -16 10 0 6 4 10 9 10 6 0 13
-4 16 -10z"/>
<path d="M5064 4044 c3 -143 5 -294 6 -337 0 -56 3 -76 11 -71 9 5 10 69 6
235 -3 135 -2 231 4 235 5 3 9 -8 9 -25 0 -42 17 -81 35 -81 8 0 15 5 15 11 0
6 7 9 15 5 8 -3 15 -1 15 4 0 6 9 29 19 53 11 23 21 72 23 110 5 77 0 81 -83
75 l-44 -3 -6 -70 -5 -70 -2 87 c-1 50 -7 90 -13 94 -8 4 -9 -67 -5 -252z"/>
<path d="M4248 4258 c-24 -8 -28 -15 -28 -51 0 -23 5 -77 12 -119 13 -88 -3
-78 125 -81 l51 -2 7 53 c3 28 11 52 16 52 5 0 9 27 9 60 0 83 -18 100 -102
99 -35 0 -75 -5 -90 -11z"/>
<path d="M5375 4261 l-30 -6 1 -101 c1 -76 5 -108 18 -130 l17 -29 146 2 c130
1 147 3 157 20 13 22 33 75 48 123 5 19 13 40 18 45 16 22 18 55 3 67 -17 13
-323 21 -378 9z"/>
<path d="M4719 4111 l-24 -19 37 11 c20 6 34 15 32 19 -8 13 -20 9 -45 -11z"/>
<path d="M4678 4063 c-8 -10 -13 -26 -11 -35 7 -30 21 -20 25 17 2 19 3 35 3
35 -1 0 -9 -8 -17 -17z"/>
<path d="M4595 4042 c-21 -11 -25 -17 -14 -19 21 -5 69 14 69 27 0 14 -19 11
-55 -8z"/>
<path d="M4433 3970 c0 -47 2 -66 4 -42 2 23 2 61 0 85 -2 23 -4 4 -4 -43z"/>
<path d="M4945 3990 c3 -5 14 -10 23 -10 15 0 15 2 2 10 -20 13 -33 13 -25 0z"/>
<path d="M4538 3968 c-40 -14 -48 -53 -48 -241 0 -141 2 -168 13 -153 16 22
45 12 58 -21 12 -32 -10 -143 -28 -143 -7 0 -13 7 -13 15 0 8 -6 15 -14 15 -8
0 -16 -7 -20 -15 -3 -8 -16 -15 -29 -15 -12 0 -76 -30 -142 -67 -298 -169
-435 -416 -435 -784 0 -96 0 -96 24 -92 22 5 23 8 29 136 4 85 14 163 28 217
34 135 114 272 177 304 98 49 117 18 40 -62 -65 -67 -89 -101 -112 -162 -27
-69 -54 -224 -57 -330 l-3 -95 742 -3 742 -2 0 82 c-1 181 -29 301 -97 415
-40 67 -54 115 -35 127 16 10 74 -39 111 -93 67 -99 105 -236 116 -423 5 -81
10 -108 22 -112 26 -10 33 4 33 67 -1 318 -113 582 -312 732 -37 28 -116 75
-177 105 l-111 55 -1 40 c-2 30 -3 33 -6 13 -2 -15 -14 -35 -26 -43 -27 -19
-38 -19 -31 -1 3 8 1 29 -4 48 -10 39 3 98 22 98 7 0 21 -10 30 -22 15 -22 16
-20 10 42 -3 36 -7 92 -8 125 -1 33 -3 90 -4 126 l-2 66 -67 8 c-121 13 -139
7 -127 -47 6 -30 -10 -45 -30 -29 -17 14 -36 -14 -55 -77 -15 -51 -35 -51 -39
1 -4 44 -24 64 -43 41 -10 -12 -10 -24 -2 -57 7 -23 8 -46 4 -50 -14 -14 -51
57 -51 96 0 38 -27 158 -38 168 -4 4 -19 2 -34 -3z"/>
<path d="M6385 3940 c-3 -5 -1 -10 4 -10 6 0 11 5 11 10 0 6 -2 10 -4 10 -3 0
-8 -4 -11 -10z"/>
<path d="M5090 3580 c0 -5 5 -10 10 -10 6 0 10 5 10 10 0 6 -4 10 -10 10 -5 0
-10 -4 -10 -10z"/>
<path d="M2740 3427 l-25 -10 30 -6 c30 -7 45 3 29 19 -5 4 -20 3 -34 -3z"/>
<path d="M2745 3380 c-3 -5 -3 -14 0 -20 3 -5 -2 -10 -11 -10 -16 0 -103 -59
-104 -70 0 -3 12 -7 27 -8 38 -3 67 -31 51 -50 -7 -8 -14 -33 -15 -55 -4 -52
-14 -62 -65 -60 -77 3 -245 -99 -335 -204 -111 -129 -160 -272 -170 -497 -6
-121 -5 -128 12 -124 21 3 21 1 29 188 8 179 50 288 143 369 50 45 88 60 105
43 8 -8 -1 -23 -31 -53 -99 -99 -151 -257 -151 -461 l0 -87 33 -6 c33 -5 887
-25 1106 -25 l124 0 -7 143 c-10 198 -31 276 -98 375 -32 46 -31 82 2 82 27 0
88 -65 111 -117 52 -122 61 -165 66 -323 5 -145 10 -169 36 -170 4 0 7 42 7
93 0 257 -57 438 -181 580 -77 87 -255 197 -319 197 -27 0 -30 3 -25 20 7 23
-10 28 -19 5 -11 -29 -29 -16 -22 15 4 22 2 29 -6 24 -8 -5 -9 2 -5 26 4 18 7
41 7 51 0 13 9 19 33 21 l32 3 -37 38 c-36 36 -58 43 -118 38 -14 -1 -30 -9
-36 -17 -15 -18 -53 -18 -60 1 -4 8 -13 15 -21 15 -10 0 -14 7 -10 20 3 13 0
20 -9 20 -7 0 -18 -9 -24 -20 -6 -11 -16 -20 -22 -20 -9 0 -9 3 0 12 7 7 12
16 12 20 0 11 -28 10 -35 -2z"/>
<path d="M6321 3184 c0 -11 3 -14 6 -6 3 7 2 16 -1 19 -3 4 -6 -2 -5 -13z"/>
<path d="M6791 3164 c0 -11 3 -14 6 -6 3 7 2 16 -1 19 -3 4 -6 -2 -5 -13z"/>
<path d="M2645 3140 c3 -5 8 -10 11 -10 2 0 4 5 4 10 0 6 -5 10 -11 10 -5 0
-7 -4 -4 -10z"/>
<path d="M4630 2221 c-44 -14 -110 -60 -128 -91 -13 -21 -22 -26 -32 -19 -20
12 -40 11 -40 -2 0 -5 4 -8 9 -4 5 3 12 1 15 -4 4 -5 -7 -16 -24 -24 l-30 -15
0 39 c0 38 -1 39 -22 27 -13 -7 -30 -19 -39 -26 -14 -11 -18 -10 -22 3 -7 16
-47 21 -47 5 0 -5 3 -9 8 -9 21 4 24 -3 6 -16 -27 -21 -34 -19 -34 12 0 32
-12 23 -16 -13 -3 -32 -9 -38 -24 -29 -7 4 -10 18 -7 32 3 17 1 23 -9 19 -7
-3 -16 -1 -19 4 -9 14 -43 12 -48 -2 -3 -10 -7 -10 -18 -1 -21 17 -62 5 -53
-16 3 -9 9 -24 11 -33 3 -11 14 -18 27 -17 17 1 17 2 4 6 -12 3 -18 14 -18 31
l1 27 28 -32 c15 -18 33 -33 39 -33 7 0 12 -4 12 -10 0 -5 -7 -10 -15 -10 -8
0 -15 -5 -15 -11 0 -24 35 -2 38 24 4 31 8 33 28 12 11 -10 21 -12 38 -5 15 5
27 5 34 -2 12 -12 52 -1 52 14 0 6 9 3 20 -7 16 -14 25 -16 43 -8 15 7 29 7
45 0 19 -9 22 -18 22 -63 0 -184 166 -314 331 -260 28 10 53 16 55 14 2 -2
-21 -30 -52 -62 -30 -32 -78 -92 -106 -132 -29 -41 -55 -74 -58 -74 -4 0 -7
27 -7 60 -1 60 -17 100 -52 127 -42 33 -122 -4 -155 -71 -19 -39 -18 -56 9
-143 6 -17 3 -23 -8 -23 -25 0 -70 105 -75 174 -2 39 -14 87 -33 131 l-31 70
-134 3 -134 3 0 -156 c0 -144 1 -157 19 -162 12 -3 17 -12 15 -29 -2 -19 2
-24 22 -24 28 0 32 15 7 29 -10 5 -15 13 -11 17 4 4 14 1 23 -6 12 -10 18 -10
30 0 13 11 15 8 15 -14 0 -19 -5 -26 -19 -26 -11 0 -23 -5 -27 -11 -3 -6 -20
-9 -36 -7 -47 7 -48 -13 -7 -94 13 -26 11 -32 -6 -18 -20 17 -29 7 -21 -24 6
-23 10 -25 47 -22 37 4 39 3 34 -17 -6 -21 -5 -21 8 -4 14 16 47 15 47 -3 0
-14 -51 -21 -66 -9 -11 9 -18 9 -29 -1 -22 -19 -19 -61 5 -67 11 -3 20 -7 20
-9 0 -2 -9 -13 -20 -24 -16 -16 -20 -33 -20 -80 0 -34 -5 -104 -11 -157 -8
-73 -8 -98 1 -103 9 -5 9 -9 1 -11 -12 -5 -21 -128 -9 -135 4 -3 45 -11 90
-19 315 -52 1187 -42 1371 16 38 13 50 28 20 25 -13 -1 -17 4 -13 19 3 11 5
114 5 230 l0 210 -37 -2 c-31 -2 -38 1 -38 17 0 13 10 21 33 26 17 4 35 7 40
6 4 -1 7 11 7 27 0 28 -1 28 -46 23 -32 -3 -49 -1 -54 8 -7 11 -11 11 -25 0
-25 -21 -55 -23 -55 -4 0 14 -5 13 -34 -4 -37 -22 -46 -20 -46 10 0 16 7 18
55 15 30 -2 55 0 55 4 0 10 51 6 69 -5 6 -4 11 -1 11 7 0 13 10 16 51 18 15 0
17 29 18 271 l2 270 -278 -7 c-153 -3 -288 -8 -300 -11 -21 -4 -21 -2 9 45 28
46 33 50 62 44 l31 -6 -22 25 c-23 24 -28 57 -14 92 9 24 -47 138 -91 183 -56
58 -178 88 -258 64z m153 -56 c45 -19 94 -60 112 -95 17 -33 12 -40 -29 -40
-23 0 -27 -3 -18 -12 16 -16 16 -130 0 -146 -9 -9 -7 -12 10 -12 13 0 22 -6
22 -15 0 -27 -30 -29 -56 -4 -23 21 -26 22 -41 7 -15 -16 -15 -19 1 -43 11
-17 14 -31 9 -36 -17 -17 -108 -22 -148 -9 -42 14 -118 77 -109 91 3 5 27 9
54 9 35 0 50 4 54 16 9 25 -1 30 -22 11 -10 -10 -31 -17 -46 -17 l-28 0 4 80
c3 77 2 80 -19 80 -62 0 25 116 104 140 44 13 108 11 146 -5z m-623 -84 c0
-23 -16 -36 -25 -21 -9 14 1 40 15 40 5 0 10 -9 10 -19z m220 -6 c0 -26 -14
-33 -25 -15 -9 14 1 40 15 40 5 0 10 -11 10 -25z m-80 -15 c0 -5 -4 -10 -10
-10 -5 0 -10 5 -10 10 0 6 5 10 10 10 6 0 10 -4 10 -10z m160 0 c0 -5 -7 -10
-16 -10 -8 0 -12 5 -9 10 3 6 10 10 16 10 5 0 9 -4 9 -10z m454 -119 c-3 -33
-10 -61 -14 -61 -9 0 -11 120 -3 133 14 23 24 -16 17 -72z m-394 19 c0 -27 -4
-50 -9 -50 -12 0 -23 63 -15 84 12 32 24 15 24 -34z m-340 -547 c0 -11 -4 -11
-20 -1 -11 7 -20 21 -20 32 0 18 1 19 20 1 11 -10 20 -24 20 -32z m30 37 c0
-5 -4 -10 -10 -10 -5 0 -10 5 -10 10 0 6 5 10 10 10 6 0 10 -4 10 -10z m36
-24 c-1 -37 -16 -39 -16 -2 0 19 7 36 15 36 1 0 2 -15 1 -34z m44 19 c-9 -10
-9 -15 -1 -15 6 0 11 -9 11 -20 0 -11 -5 -20 -11 -20 -5 0 -7 5 -4 10 4 6 1
17 -5 25 -13 15 -6 35 12 35 7 0 6 -6 -2 -15z m-163 -41 c-3 -3 -12 -4 -19 -1
-8 3 -5 6 6 6 11 1 17 -2 13 -5z m-47 -50 c0 -8 -5 -12 -10 -9 -6 4 -8 11 -5
16 9 14 15 11 15 -7z m910 -26 c0 -13 -5 -30 -10 -38 -7 -11 -10 -5 -10 23 0
20 5 37 10 37 6 0 10 -10 10 -22z m237 -3 c-4 -8 -11 -15 -17 -15 -7 0 -7 6 0
21 13 23 26 19 17 -6z m226 18 c3 -5 1 -17 -3 -28 -7 -19 -7 -19 -18 0 -10 18
-11 18 -12 3 0 -10 -4 -18 -10 -18 -11 0 -14 33 -3 43 9 9 41 9 46 0z m-1278
-22 c3 -8 0 -19 -6 -25 -9 -8 -10 -7 -6 7 5 14 0 17 -27 17 -19 0 -37 -6 -39
-12 -3 -7 -6 -3 -6 10 -1 20 3 22 39 20 23 -2 42 -9 45 -17z m30 9 c3 -5 1
-10 -4 -10 -6 0 -11 5 -11 10 0 6 2 10 4 10 3 0 8 -4 11 -10z m105 1 c0 -6 -4
-13 -10 -16 -5 -3 -10 1 -10 9 0 9 5 16 10 16 6 0 10 -4 10 -9z m973 1 c2 7 8
10 12 6 11 -11 -25 -48 -44 -47 -13 1 -13 2 2 6 18 5 24 23 7 23 -5 0 -10 5
-10 11 0 8 4 8 14 0 11 -9 15 -9 19 1z m80 -13 c3 -10 1 -22 -4 -25 -5 -3 -9
2 -9 11 0 9 -6 15 -12 12 -7 -2 -12 -10 -10 -16 1 -6 -2 -11 -8 -11 -10 0 -14
32 -5 41 12 13 44 6 48 -12z m-1113 -9 c0 -11 -4 -20 -10 -20 -5 0 -10 9 -10
20 0 11 5 20 10 20 6 0 10 -9 10 -20z m167 4 c6 -17 -13 -42 -24 -30 -4 4 -1
11 7 16 10 7 11 10 3 10 -7 0 -13 5 -13 10 0 16 20 12 27 -6z m287 5 c11 10
16 9 24 -5 7 -13 13 -14 30 -5 27 15 27 15 28 -14 2 -19 -1 -23 -10 -16 -7 6
-22 8 -34 4 -17 -4 -22 -1 -23 13 -1 17 -2 17 -6 1 -2 -9 -9 -15 -14 -11 -6 3
-15 1 -22 -4 -8 -7 -18 -6 -31 4 -20 14 -20 14 0 28 13 10 23 11 31 4 9 -7 17
-7 27 1z m180 -40 c-11 -18 -20 -9 -18 19 2 38 4 40 15 14 5 -13 7 -28 3 -33z
m165 34 c10 -17 10 -17 11 0 0 9 5 17 10 17 24 0 3 -35 -27 -44 -24 -8 -38 7
-29 29 7 20 23 19 35 -2z m98 1 c2 -7 -8 -9 -27 -6 -16 2 -30 9 -30 14 0 13
53 6 57 -8z m53 -4 c11 -11 20 -23 20 -27 0 -4 -5 -2 -12 5 -8 8 -15 9 -25 0
-18 -14 -24 -7 -16 20 7 27 8 27 33 2z m-830 -5 c0 -8 -4 -15 -10 -15 -5 0
-10 7 -10 15 0 8 5 15 10 15 6 0 10 -7 10 -15z m80 -5 c0 -11 -2 -20 -4 -20
-2 0 -6 9 -9 20 -3 11 -1 20 4 20 5 0 9 -9 9 -20z m110 0 c0 -11 -7 -20 -15
-20 -8 0 -15 9 -15 20 0 11 7 20 15 20 8 0 15 -9 15 -20z m45 10 c-3 -5 -13
-10 -21 -10 -8 0 -14 5 -14 10 0 6 9 10 21 10 11 0 17 -4 14 -10z m243 -12
c-2 -13 -10 -23 -18 -23 -8 0 -16 10 -18 23 -3 17 2 22 18 22 16 0 21 -5 18
-22z m-638 2 c0 -5 -5 -10 -11 -10 -5 0 -7 5 -4 10 3 6 8 10 11 10 2 0 4 -4 4
-10z m70 -10 c0 -5 -2 -10 -4 -10 -3 0 -8 5 -11 10 -3 6 -1 10 4 10 6 0 11 -4
11 -10z m-66 -62 c9 -34 8 -37 -12 -31 -14 3 -18 11 -14 29 6 30 18 31 26 2z
m994 3 c-9 -15 -9 -23 3 -37 12 -15 12 -17 -1 -12 -26 8 -26 68 0 68 6 0 6 -7
-2 -19z m-838 -6 c0 -8 -7 -15 -15 -15 -8 0 -15 -4 -15 -10 0 -12 17 -13 24
-1 11 18 42 18 42 1 0 -14 -8 -17 -39 -16 -21 1 -42 8 -47 16 -7 11 -11 10
-25 -3 -9 -10 -22 -14 -28 -10 -8 5 -8 8 1 11 7 2 12 8 12 13 0 6 -4 7 -10 4
-5 -3 -10 -2 -10 3 0 13 53 10 63 -3 5 -6 12 -4 20 8 15 21 27 22 27 2z m281
-10 c40 4 45 0 30 -24 -13 -20 -138 -23 -158 -3 -11 12 -17 12 -22 3 -6 -9
-11 -8 -21 4 -14 17 -30 20 -30 5 0 -5 7 -10 15 -10 8 0 15 -4 15 -10 0 -14
-12 -12 -35 6 -17 12 -18 16 -5 24 16 10 69 8 88 -3 6 -5 12 -4 12 1 0 5 11 7
25 4 18 -3 27 1 32 14 7 17 8 17 11 2 2 -13 12 -16 43 -13z m213 9 c3 -8 10
-12 16 -9 13 8 13 -5 0 -25 -8 -13 -10 -12 -10 3 0 24 -16 21 -34 -5 -16 -22
-16 -22 -16 15 0 30 4 37 19 37 10 0 22 -7 25 -16z m98 -54 c-3 -3 -7 1 -9 8
-4 10 -8 10 -19 1 -11 -9 -18 -9 -26 -1 -15 15 -1 45 17 38 8 -3 18 0 22 7 5
8 10 1 13 -18 4 -16 4 -32 2 -35z m195 23 c8 -6 12 -17 8 -23 -4 -7 -14 -3
-26 12 -17 19 -22 20 -29 8 -8 -13 -13 -13 -30 -2 -16 10 -25 10 -35 2 -9 -8
-15 -8 -20 0 -10 16 -25 12 -25 -6 0 -13 -3 -14 -14 -4 -25 20 -8 37 37 37 23
-1 45 -6 50 -12 4 -6 10 -5 16 4 5 7 13 11 19 7 6 -3 14 -1 18 6 6 9 9 8 12
-2 2 -8 11 -20 19 -27z m-389 3 c2 -9 8 -16 13 -16 5 0 9 -7 9 -15 0 -13 -3
-13 -20 -3 -11 7 -20 19 -20 26 0 8 -6 12 -12 9 -7 -2 -12 -10 -10 -16 1 -6
-2 -11 -7 -11 -14 0 -24 19 -17 35 7 19 60 12 64 -9z m-608 -6 c0 -5 -7 -7
-15 -4 -8 4 -15 8 -15 10 0 2 7 4 15 4 8 0 15 -4 15 -10z m-36 -72 c-3 -4 2
-8 10 -8 9 0 16 5 16 11 0 6 16 8 43 5 23 -2 48 -5 55 -5 7 -1 10 -6 7 -11 -4
-6 -10 -8 -15 -5 -5 3 -12 0 -16 -6 -5 -9 -10 -8 -18 2 -14 17 -37 18 -54 2
-11 -10 -18 -9 -37 5 -30 21 -35 48 -6 30 11 -7 17 -16 15 -20z m1167 23 c-9
-6 -11 -18 -7 -36 4 -17 3 -24 -4 -20 -11 7 -14 48 -3 58 3 4 11 7 17 7 6 0 5
-4 -3 -9z m-738 -13 c-5 -7 -8 -23 -7 -36 1 -13 -4 -21 -10 -19 -9 3 -12 28
-7 60 0 4 8 7 17 7 11 0 14 -4 7 -12z m381 -10 c-14 -48 -23 -54 -24 -15 0 27
4 37 16 37 11 0 14 -6 8 -22z m421 12 c7 12 45 14 45 2 0 -5 -6 -17 -14 -28
-12 -15 -17 -16 -27 -7 -9 9 -16 10 -26 1 -10 -8 -17 -8 -25 0 -16 16 10 46
27 32 9 -8 15 -8 20 0z m-1065 -10 c0 -5 -2 -10 -4 -10 -3 0 -8 5 -11 10 -3 6
-1 10 4 10 6 0 11 -4 11 -10z m110 0 c0 -5 -9 -14 -20 -20 -15 -8 -20 -8 -20
1 0 8 -7 6 -18 -4 -10 -10 -27 -17 -38 -16 -10 0 -13 3 -6 6 6 2 12 10 12 17
0 8 13 13 31 14 17 0 34 3 37 6 9 9 22 7 22 -4z m230 -20 c0 -16 -4 -30 -10
-30 -5 0 -7 6 -4 14 3 8 1 17 -4 20 -5 3 -13 -4 -17 -17 -6 -19 -8 -20 -12 -4
-3 11 3 24 14 32 27 21 33 18 33 -15z m519 14 c7 5 11 -1 11 -15 0 -20 -1 -21
-25 -5 -22 14 -25 15 -25 1 0 -9 -9 -15 -25 -15 -14 0 -28 -7 -31 -15 -8 -20
-24 -19 -24 1 0 12 -6 15 -26 10 -22 -6 -25 -4 -20 9 3 9 6 20 6 23 0 10 52 8
68 -1 7 -5 12 -3 12 3 0 7 8 9 19 5 11 -3 23 -1 26 6 6 8 9 8 15 -1 4 -7 13
-9 19 -6z m68 -30 c-6 -7 -37 7 -37 17 0 4 7 6 15 3 10 -4 15 0 16 12 1 14 3
12 6 -4 3 -13 3 -26 0 -28z m-747 6 c-1 -24 -1 -25 -16 -5 -12 17 -16 18 -24
5 -11 -18 -25 -7 -17 14 3 8 17 13 31 12 21 -1 26 -6 26 -26z m181 -7 c-10
-17 -10 -16 -11 3 0 23 13 41 18 25 2 -6 -1 -18 -7 -28z m119 12 c0 -14 -4
-25 -10 -25 -5 0 -10 11 -10 25 0 14 5 25 10 25 6 0 10 -11 10 -25z m54 -16
c-9 -15 -34 -10 -41 7 -9 23 19 38 34 17 7 -9 10 -20 7 -24z m145 34 c0 -5 -4
-17 -9 -28 -8 -18 -9 -17 -9 8 -1 15 4 27 9 27 6 0 10 -3 9 -7z m-233 -24 c0
-9 -7 -17 -16 -17 -8 1 -19 -1 -25 -3 -11 -4 -15 3 -15 25 0 10 10 14 28 14
20 -1 28 -6 28 -19z m140 -1 c-3 -13 -6 -27 -7 -33 -1 -12 -17 25 -18 43 -1 6
6 12 15 12 12 0 15 -6 10 -22z m-718 -150 c11 -14 10 -16 -7 -11 -12 3 -17 11
-14 19 3 8 6 14 7 12 1 -2 7 -11 14 -20z m687 2 c3 -6 -1 -7 -9 -4 -9 3 -16 1
-16 -5 0 -6 5 -11 10 -11 6 0 10 -4 10 -8 0 -5 -7 -9 -15 -9 -9 0 -15 10 -15
24 0 23 23 32 35 13z m188 -10 c-3 -11 -7 -20 -9 -20 -2 0 -4 9 -4 20 0 11 4
20 9 20 5 0 7 -9 4 -20z m-383 0 c0 -5 -4 -10 -10 -10 -5 0 -10 5 -10 10 0 6
5 10 10 10 6 0 10 -4 10 -10z m-250 -10 c0 -5 -4 -10 -10 -10 -5 0 -10 5 -10
10 0 6 5 10 10 10 6 0 10 -4 10 -10z m307 -22 c-3 -7 -5 -2 -5 12 0 14 2 19 5
13 2 -7 2 -19 0 -25z m383 22 c0 -5 -4 -10 -10 -10 -5 0 -10 5 -10 10 0 6 5
10 10 10 6 0 10 -4 10 -10z m-410 -15 c0 -8 -2 -15 -4 -15 -2 0 -6 7 -10 15
-3 8 -1 15 4 15 6 0 10 -7 10 -15z m-610 -34 c13 -25 13 -34 0 -26 -16 10 -32
45 -21 45 6 0 15 -9 21 -19z m353 -34 c3 -8 1 -20 -4 -28 -6 -10 -9 -7 -9 14
0 29 5 35 13 14z m507 -13 c0 -8 -6 -14 -14 -14 -9 0 -12 7 -9 20 6 22 23 18
23 -6z m-193 -6 c-3 -8 -6 -5 -6 6 -1 11 2 17 5 13 3 -3 4 -12 1 -19z m126 1
c5 -3 2 -9 -7 -12 -12 -5 -16 0 -16 15 0 12 3 17 8 12 4 -5 11 -12 15 -15z
m187 6 c0 -8 -7 -15 -15 -15 -9 0 -12 6 -9 15 4 8 10 15 15 15 5 0 9 -7 9 -15z
m-562 -20 c-3 -3 -9 2 -12 12 -6 14 -5 15 5 6 7 -7 10 -15 7 -18z m52 21 c0
-3 -4 -8 -10 -11 -5 -3 -10 -1 -10 4 0 6 5 11 10 11 6 0 10 -2 10 -4z m557 -2
c-3 -3 -12 -4 -19 -1 -8 3 -5 6 6 6 11 1 17 -2 13 -5z m-267 -19 c0 -8 -4 -15
-10 -15 -5 0 -7 7 -4 15 4 8 8 15 10 15 2 0 4 -7 4 -15z m-756 -31 c3 -8 2
-12 -4 -9 -6 3 -10 10 -10 16 0 14 7 11 14 -7z m23 -26 c-3 -8 -6 -5 -6 6 -1
11 2 17 5 13 3 -3 4 -12 1 -19z m-17 -94 c0 -8 -4 -12 -10 -9 -5 3 -10 10 -10
16 0 5 5 9 10 9 6 0 10 -7 10 -16z m1320 2 c0 -3 -4 -8 -10 -11 -5 -3 -10 -1
-10 4 0 6 5 11 10 11 6 0 10 -2 10 -4z m-830 -35 c0 -5 -7 -11 -14 -14 -10 -4
-13 -1 -9 9 6 15 23 19 23 5z"/>
<path d="M4661 2075 c-11 -14 -30 -58 -42 -98 -12 -40 -24 -75 -26 -79 -2 -5
0 -8 6 -8 6 0 15 18 21 40 13 49 20 53 88 55 59 1 57 3 86 -79 3 -10 9 -17 12
-14 6 7 -43 157 -62 185 -20 31 -57 30 -83 -2z m73 -7 c8 -13 17 -33 21 -45 6
-22 4 -23 -49 -23 -48 0 -56 3 -56 19 0 23 37 71 55 71 8 0 21 -10 29 -22z"/>
<path d="M4715 1947 c4 -17 -1 -26 -25 -39 -46 -26 -37 -53 17 -54 l41 0 -3
45 c-4 61 -3 58 -20 65 -12 4 -14 0 -10 -17z m-3 -69 c-15 -15 -26 -4 -18 18
5 13 9 15 18 6 9 -9 9 -15 0 -24z"/>
<path d="M4667 1953 c-12 -11 -8 -23 7 -23 8 0 16 7 20 15 5 15 -14 21 -27 8z"/>
<path d="M5025 1300 c3 -5 8 -10 11 -10 2 0 4 5 4 10 0 6 -5 10 -11 10 -5 0
-7 -4 -4 -10z"/>
<path d="M4820 1300 c0 -5 5 -10 11 -10 5 0 7 5 4 10 -3 6 -8 10 -11 10 -2 0
-4 -4 -4 -10z"/>
<path d="M5310 1110 c0 -5 5 -10 10 -10 6 0 10 5 10 10 0 6 -4 10 -10 10 -5 0
-10 -4 -10 -10z"/>
<path d="M3882 2170 c0 -14 2 -19 5 -12 2 6 2 18 0 25 -3 6 -5 1 -5 -13z"/>
<path d="M4030 2053 c0 -22 2 -25 10 -13 13 20 13 40 0 40 -5 0 -10 -12 -10
-27z"/>
<path d="M2757 2048 c-21 -6 -57 -28 -80 -50 -33 -31 -47 -38 -67 -33 -19 4
-21 3 -10 -4 13 -9 12 -12 -5 -25 -18 -13 -21 -13 -27 5 -4 10 -5 26 -1 35 4
12 -3 10 -33 -6 -24 -14 -40 -18 -42 -11 -2 6 -11 11 -20 11 -14 0 -14 -2 -3
-9 11 -7 10 -11 -6 -20 -24 -12 -34 -6 -26 17 4 10 2 13 -5 8 -7 -4 -12 -16
-12 -27 0 -12 -5 -19 -12 -16 -7 2 -12 11 -10 19 3 22 -43 44 -62 29 -10 -8
-16 -9 -21 -1 -7 12 -16 13 -33 2 -16 -11 1 -62 20 -61 10 0 10 2 1 6 -7 2
-13 13 -13 24 0 24 27 15 35 -12 4 -10 14 -19 23 -19 15 -1 15 -2 -1 -14 -12
-9 -14 -16 -8 -21 17 -10 31 4 31 31 0 13 5 24 10 24 6 0 10 -4 10 -9 0 -4 21
-11 46 -15 37 -5 49 -3 59 10 11 16 12 15 18 0 5 -11 16 -17 34 -15 62 5 63 4
63 -63 1 -101 43 -172 124 -209 45 -21 120 -25 162 -9 15 6 29 8 32 5 3 -2
-21 -31 -52 -63 -31 -32 -72 -82 -92 -110 -19 -29 -39 -52 -43 -52 -5 0 -9 25
-8 55 2 95 -56 140 -130 100 -43 -23 -57 -62 -49 -131 5 -41 3 -55 -6 -52 -22
8 -48 74 -54 139 -3 35 -16 90 -27 122 -22 56 -22 57 -62 57 -22 0 -70 3 -107
7 l-68 6 0 -129 c0 -71 4 -144 9 -161 6 -20 6 -35 0 -38 -5 -4 -8 -36 -6 -73
2 -59 5 -67 22 -68 36 -1 65 -15 76 -37 9 -20 9 -21 -4 -4 -10 12 -17 15 -22
7 -5 -8 -10 -8 -20 0 -19 16 -55 3 -55 -20 0 -11 10 -25 22 -31 l21 -11 -21
-17 c-15 -11 -21 -27 -21 -51 0 -42 6 -137 9 -147 1 -5 2 -11 1 -15 0 -5 -3
-42 -5 -83 -4 -63 -2 -76 12 -85 15 -8 15 -11 2 -19 -22 -15 -4 -26 64 -40
192 -42 754 -63 1011 -39 135 13 140 14 140 36 0 12 5 26 12 30 11 7 17 137
14 303 -1 60 -3 67 -23 72 -12 4 -28 1 -36 -5 -10 -9 -15 -9 -22 1 -5 8 -10 9
-14 3 -6 -11 -76 -14 -76 -3 1 17 19 26 55 28 87 4 120 11 123 26 4 21 -16 31
-59 28 -21 -1 -40 3 -44 9 -5 8 -11 8 -21 -1 -8 -7 -27 -9 -48 -5 -20 4 -37 2
-41 -4 -8 -13 -25 -3 -25 14 0 10 28 15 111 18 114 5 137 14 120 47 -5 9 -5
68 0 131 4 63 8 154 8 201 1 82 0 87 -21 91 -13 2 -130 4 -260 4 -131 -1 -237
1 -235 4 31 58 43 70 65 65 26 -6 28 2 5 27 -14 16 -15 24 -4 53 8 22 9 40 2
52 -5 10 -17 37 -27 61 -29 70 -124 132 -199 131 -16 -1 -47 -6 -68 -11z m155
-54 c31 -16 90 -84 85 -99 -2 -5 -13 -11 -25 -13 -18 -3 -21 -9 -18 -40 1 -20
-1 -52 -5 -69 -5 -25 -4 -33 7 -33 19 0 18 -29 -1 -36 -9 -4 -23 4 -34 17 -16
19 -22 21 -32 12 -10 -10 -10 -18 0 -39 10 -22 9 -29 -1 -35 -21 -13 -105 -10
-141 5 -41 17 -86 64 -70 74 6 4 13 40 15 80 3 62 1 72 -14 72 -31 0 -28 17
10 59 60 68 146 85 224 45z m-542 -41 c0 -17 -19 -35 -29 -29 -18 12 -12 36 9
36 11 0 20 -3 20 -7z m180 -12 c0 -23 -16 -36 -25 -21 -9 14 1 40 15 40 5 0
10 -9 10 -19z m-70 -15 c0 -3 -4 -8 -10 -11 -5 -3 -10 -1 -10 4 0 6 5 11 10
11 6 0 10 -2 10 -4z m135 -6 c3 -5 -1 -10 -10 -10 -9 0 -13 5 -10 10 3 6 8 10
10 10 2 0 7 -4 10 -10z m51 -77 c-2 -16 -5 -37 -5 -48 -2 -34 -21 5 -21 43 0
22 5 32 15 32 12 0 14 -7 11 -27z m344 3 c0 -14 -4 -27 -9 -30 -4 -3 -6 -17
-3 -32 3 -18 1 -25 -7 -23 -7 3 -12 8 -12 12 1 4 1 27 1 52 0 33 4 45 15 45 9
0 15 -9 15 -24z m-694 -451 c-1 -30 -7 -31 -23 -6 -10 15 -10 21 0 24 22 9 25
7 23 -18z m45 -7 c10 -18 9 -20 -6 -15 -9 4 -19 7 -21 7 -2 0 -4 7 -4 15 0 22
18 18 31 -7z m29 12 c0 -5 -2 -10 -4 -10 -3 0 -8 5 -11 10 -3 6 -1 10 4 10 6
0 11 -4 11 -10z m29 -17 c0 -25 -1 -25 -8 -8 -5 11 -7 23 -4 28 8 14 13 7 12
-20z m46 -13 c3 -5 1 -10 -4 -10 -6 0 -11 5 -11 10 0 6 2 10 4 10 3 0 8 -4 11
-10z m-185 -40 c0 -5 -5 -10 -11 -10 -5 0 -7 5 -4 10 3 6 8 10 11 10 2 0 4 -4
4 -10z m58 -26 c12 -4 22 -14 22 -23 0 -12 -2 -13 -9 -3 -5 8 -20 12 -36 10
-16 -2 -30 2 -32 10 -5 13 18 16 55 6z m52 -16 c0 -9 3 -8 10 2 8 13 11 13 27
-2 16 -17 16 -18 -20 -18 -26 0 -37 4 -37 15 0 8 5 15 10 15 6 0 10 -6 10 -12z
m80 2 c0 -5 -2 -10 -4 -10 -3 0 -8 5 -11 10 -3 6 -1 10 4 10 6 0 11 -4 11 -10z
m90 -20 c0 -11 -4 -20 -9 -20 -6 0 -9 9 -8 20 1 11 5 20 9 20 4 0 8 -9 8 -20z
m30 4 c0 -8 -4 -12 -10 -9 -5 3 -10 10 -10 16 0 5 5 9 10 9 6 0 10 -7 10 -16z
m460 -3 c0 -11 -4 -23 -10 -26 -6 -4 -10 5 -10 19 0 14 5 26 10 26 6 0 10 -9
10 -19z m384 13 c22 -9 20 -31 -3 -37 -25 -6 -30 -1 -24 24 6 21 6 21 27 13z
m-904 -8 c0 -11 -19 -15 -25 -6 -3 5 1 10 9 10 9 0 16 -2 16 -4z m158 -14 c2
-7 -3 -12 -12 -12 -9 0 -16 7 -16 16 0 17 22 14 28 -4z m32 8 c0 -5 -4 -10
-10 -10 -5 0 -10 5 -10 10 0 6 5 10 10 10 6 0 10 -4 10 -10z m60 0 c-8 -5 -10
-10 -4 -10 5 0 15 5 21 11 14 14 43 5 43 -13 0 -9 -3 -8 -10 2 -5 8 -10 10
-10 4 0 -16 -41 -25 -57 -12 -16 13 -8 28 15 28 15 0 15 -2 2 -10z m96 -9 c0
-11 -5 -17 -13 -14 -17 6 -17 20 0 26 6 3 12 6 12 6 1 1 1 -7 1 -18z m84 -5
c0 -15 -3 -16 -15 -6 -10 9 -15 9 -15 1 0 -6 -7 -11 -15 -11 -8 0 -15 6 -15
13 0 19 5 22 34 22 19 0 26 -5 26 -19z m160 4 c0 -11 -39 -24 -47 -16 -3 3 -3
12 0 20 6 15 47 11 47 -4z m58 8 c-3 -7 -11 -13 -18 -13 -7 0 -15 6 -17 13 -3
7 4 12 17 12 13 0 20 -5 18 -12z m87 2 c4 -6 16 -8 28 -4 19 6 20 5 8 -10 -10
-12 -17 -14 -27 -5 -10 8 -14 8 -14 0 0 -6 -4 -11 -10 -11 -5 0 -10 9 -10 20
0 21 15 27 25 10z m94 -4 c9 -11 7 -13 -11 -11 -30 3 -30 3 -23 15 9 14 20 13
34 -4z m-129 -6 c0 -12 -28 -25 -36 -17 -9 9 6 27 22 27 8 0 14 -5 14 -10z
m-840 -50 c9 -16 8 -20 -5 -20 -8 0 -15 9 -15 20 0 11 2 20 5 20 2 0 9 -9 15
-20z m146 -16 c8 3 14 0 14 -7 0 -14 -45 -16 -74 -3 -12 6 -21 4 -26 -5 -12
-18 -22 -6 -14 16 5 12 14 15 35 11 17 -3 31 0 36 7 5 8 9 7 11 -6 2 -11 9
-16 18 -13z m507 -9 c70 1 92 -5 68 -19 -4 -3 -36 -8 -70 -11 -44 -3 -60 -2
-55 6 4 7 0 9 -14 5 -11 -4 -23 -2 -27 4 -5 8 -11 8 -21 -1 -11 -9 -14 -7 -14
15 0 25 1 26 28 13 16 -8 58 -12 105 -12z m-400 2 c-3 -5 8 -6 28 -2 39 9 33
9 119 6 59 -1 66 -3 77 -27 l12 -26 -26 17 c-21 14 -27 15 -34 4 -6 -11 -9
-10 -14 3 -6 16 -9 16 -33 0 -25 -16 -26 -16 -19 1 8 20 -6 23 -22 3 -11 -13
-29 -12 -86 4 -5 2 -18 0 -28 -5 -20 -9 -55 14 -37 25 17 10 70 8 63 -3z m535
-20 c3 -13 -3 -17 -27 -17 -33 0 -39 8 -19 28 17 17 42 11 46 -11z m-823 -37
c40 0 75 -13 59 -22 -13 -7 -99 -2 -113 6 -6 4 -11 15 -11 24 0 12 3 13 12 4
7 -7 30 -12 53 -12z m95 -10 c0 -5 -2 -10 -4 -10 -3 0 -8 5 -11 10 -3 6 -1 10
4 10 6 0 11 -4 11 -10z m220 -20 c0 -16 -4 -30 -10 -30 -11 0 -14 43 -3 53 11
12 13 8 13 -23z m-97 12 c17 -1 27 -8 27 -17 0 -8 5 -15 10 -15 6 0 10 -5 10
-12 0 -6 -11 -1 -25 12 -14 13 -25 18 -25 12 0 -7 -7 -12 -16 -12 -8 0 -12 5
-9 10 4 6 -6 10 -24 10 -16 0 -32 -4 -36 -10 -3 -5 -12 -7 -20 -4 -26 10 7 32
45 30 19 -2 47 -3 63 -4z m423 -8 c-3 -9 -6 -20 -6 -25 0 -6 -4 -8 -9 -5 -12
8 -2 46 11 46 6 0 7 -7 4 -16z m-232 -2 c12 -3 -14 -32 -28 -32 -6 0 -4 5 4
10 13 9 13 10 0 10 -9 0 -21 -5 -28 -12 -14 -14 -27 -4 -19 15 4 12 33 15 71
9z m95 -19 c0 -25 -1 -26 -9 -8 -12 27 -12 35 0 35 6 0 10 -12 9 -27z m-33 -1
c0 -11 -9 -18 -23 -18 -22 -2 -31 15 -16 29 13 14 39 7 39 -11z m72 1 c-4 -22
-22 -20 -26 1 -2 10 3 16 13 16 10 0 15 -7 13 -17z m52 -2 c0 -11 -4 -23 -10
-26 -6 -4 -10 5 -10 19 0 14 5 26 10 26 6 0 10 -9 10 -19z m238 1 c3 -9 -3
-13 -14 -11 -19 2 -45 -5 -76 -22 -13 -7 -18 -5 -18 5 0 9 -7 12 -20 9 -14 -4
-20 0 -20 11 0 19 -16 21 -23 4 -3 -8 -6 -6 -6 4 -1 15 10 17 86 15 62 -1 88
-6 91 -15z m65 -1 c3 -14 -1 -18 -17 -16 -30 3 -30 3 -16 20 17 20 27 19 33
-4z m-716 -133 c-3 -8 -6 -5 -6 6 -1 11 2 17 5 13 3 -3 4 -12 1 -19z m373 -18
c0 -5 -4 -10 -10 -10 -5 0 -10 5 -10 10 0 6 5 10 10 10 6 0 10 -4 10 -10z
m220 0 c0 -5 -4 -10 -10 -10 -5 0 -10 5 -10 10 0 6 5 10 10 10 6 0 10 -4 10
-10z m-855 -30 c3 -5 1 -10 -4 -10 -6 0 -11 5 -11 10 0 6 2 10 4 10 3 0 8 -4
11 -10z m709 -45 c3 -9 0 -15 -9 -15 -9 0 -12 6 -9 15 4 8 7 15 9 15 2 0 5 -7
9 -15z m146 5 c0 -5 -2 -10 -4 -10 -3 0 -8 5 -11 10 -3 6 -1 10 4 10 6 0 11
-4 11 -10z m-300 -10 c0 -5 -5 -10 -11 -10 -5 0 -7 5 -4 10 3 6 8 10 11 10 2
0 4 -4 4 -10z m260 0 c0 -5 -4 -10 -10 -10 -5 0 -10 5 -10 10 0 6 5 10 10 10
6 0 10 -4 10 -10z m-153 -6 c-3 -3 -12 -4 -19 -1 -8 3 -5 6 6 6 11 1 17 -2 13
-5z m-562 -44 c3 -5 1 -10 -4 -10 -6 0 -11 5 -11 10 0 6 2 10 4 10 3 0 8 -4
11 -10z m295 -120 c0 -5 -5 -10 -11 -10 -5 0 -7 5 -4 10 3 6 8 10 11 10 2 0 4
-4 4 -10z"/>
<path d="M2820 1946 c0 -3 9 -10 20 -16 11 -6 20 -8 20 -6 0 3 -9 10 -20 16
-11 6 -20 8 -20 6z"/>
<path d="M2789 1923 c-13 -16 -12 -17 4 -4 9 7 17 15 17 17 0 8 -8 3 -21 -13z"/>
<path d="M2868 1872 c-3 -12 0 -26 7 -32 8 -6 17 -26 21 -43 4 -18 9 -27 11
-22 2 6 -5 35 -15 65 -15 43 -20 50 -24 32z"/>
<path d="M2748 1825 c-20 -53 -15 -61 6 -10 9 21 22 35 33 35 15 0 16 2 3 10
-23 15 -24 13 -42 -35z"/>
<path d="M2797 1823 c-4 -3 -7 -11 -7 -17 0 -6 5 -5 12 2 6 6 9 14 7 17 -3 3
-9 2 -12 -2z"/>
<path d="M2828 1805 c-3 -14 -1 -28 4 -31 10 -6 1 -24 -13 -24 -5 0 -9 7 -9
15 0 8 -4 15 -10 15 -5 0 -10 -9 -10 -20 0 -16 7 -20 35 -20 33 0 35 2 35 34
0 44 -25 68 -32 31z"/>
<path d="M2740 1755 c-10 -12 -10 -15 3 -15 8 0 17 7 21 15 3 8 2 15 -3 15 -5
0 -14 -7 -21 -15z"/>
<path d="M6432 2037 c-18 -7 -50 -29 -71 -49 -29 -27 -45 -35 -63 -31 -18 4
-20 2 -8 -6 17 -12 14 -16 -19 -26 -22 -7 -23 -5 -19 19 8 38 -5 40 -41 7 -26
-24 -31 -26 -31 -11 0 10 -6 20 -13 23 -15 5 -16 -20 -3 -41 4 -6 2 -12 -3
-12 -6 0 -11 5 -11 10 0 6 -7 10 -16 10 -10 0 -14 6 -10 15 3 8 1 15 -4 15 -5
0 -10 -9 -12 -20 -4 -28 -22 -30 -26 -3 -4 25 -18 30 -79 31 -31 1 -43 -3 -43
-14 0 -7 5 -14 10 -14 6 0 10 5 10 11 0 8 5 8 15 -1 8 -7 15 -17 15 -23 0 -5
8 -16 18 -23 15 -12 15 -15 2 -24 -12 -9 -12 -11 5 -8 15 2 21 12 23 38 2 29
0 32 -8 17 -13 -21 -30 -13 -30 14 0 34 45 20 51 -16 3 -15 13 -20 37 -21 18
-1 35 -4 38 -7 4 -4 15 -2 26 4 14 7 23 7 34 -1 7 -7 21 -9 30 -6 8 3 26 3 40
0 22 -6 24 -11 24 -59 0 -95 35 -159 110 -203 36 -22 58 -27 111 -27 42 0 72
5 83 14 9 8 19 11 23 8 3 -4 -23 -38 -59 -76 -36 -38 -76 -87 -88 -109 -35
-61 -50 -62 -50 -1 0 91 -42 140 -104 119 -68 -22 -98 -83 -76 -151 16 -47 5
-63 -21 -31 -22 29 -38 84 -41 142 -1 24 -12 68 -24 99 -22 55 -24 56 -71 63
-26 3 -78 7 -114 7 l-66 1 -1 -127 c-1 -122 7 -161 30 -147 5 3 15 1 22 -5 7
-6 21 -9 30 -5 12 5 16 0 16 -21 0 -18 -4 -24 -12 -18 -7 4 -22 7 -33 6 -11
-2 -14 0 -7 3 17 8 15 24 -3 24 -8 0 -15 -6 -15 -14 0 -8 -7 -17 -16 -20 -10
-4 -13 -13 -9 -26 4 -12 7 -40 7 -64 l0 -43 51 -9 c37 -7 51 -14 53 -27 2 -12
-1 -15 -9 -9 -13 10 -93 10 -102 0 -9 -8 17 -48 31 -48 7 0 14 -6 17 -14 4
-10 -2 -16 -21 -18 l-27 -3 1 -198 c1 -109 4 -200 6 -203 11 -10 127 -35 241
-51 94 -13 192 -17 427 -16 298 0 324 2 558 40 17 3 32 10 32 15 0 6 -13 8
-30 6 -16 -3 -30 -1 -30 3 0 4 -10 5 -22 2 -13 -3 -20 -2 -16 2 4 4 22 9 40
11 18 2 38 10 45 17 16 16 22 342 6 358 -7 7 -24 7 -54 0 -67 -16 -89 -14 -89
7 0 15 9 19 47 21 91 4 157 56 72 56 -19 0 -40 4 -48 9 -8 5 -16 4 -20 -2 -8
-13 -43 -19 -58 -9 -7 4 -21 2 -32 -5 -22 -14 -36 -6 -28 15 3 9 24 15 59 16
29 1 78 7 108 14 l55 12 3 228 4 228 -129 -6 c-70 -3 -188 -7 -261 -10 l-133
-4 26 30 c14 17 25 35 25 41 0 6 10 8 25 4 28 -7 33 5 9 25 -12 10 -14 23 -9
60 4 29 3 49 -4 54 -6 3 -11 14 -11 24 0 34 -57 98 -111 125 -58 29 -129 34
-187 13z m162 -41 c34 -14 96 -81 96 -103 0 -7 -10 -13 -22 -13 -22 0 -23 -4
-23 -75 0 -53 4 -75 13 -77 10 -2 9 -8 -3 -23 -15 -20 -16 -20 -31 3 -28 39
-66 22 -43 -20 10 -18 8 -24 -7 -36 -53 -39 -228 31 -198 80 3 5 7 40 7 79 2
60 0 69 -15 69 -11 0 -18 7 -18 18 1 23 54 83 87 98 38 17 117 17 157 0z
m-354 -65 c0 -23 -16 -36 -25 -21 -9 14 1 40 15 40 5 0 10 -9 10 -19z m70 -21
c0 -5 -7 -10 -15 -10 -8 0 -15 5 -15 10 0 6 7 10 15 10 8 0 15 -4 15 -10z m45
-90 c-1 -14 -3 -32 -4 -40 -1 -13 -2 -13 -11 0 -11 17 -13 73 -3 84 10 10 21
-16 18 -44z m341 -2 c-3 -29 -5 -56 -5 -60 -1 -5 -5 -8 -10 -8 -9 0 -13 99 -4
113 2 4 9 7 14 7 6 0 8 -21 5 -52z m-642 -434 c4 -9 4 -19 1 -22 -6 -6 -35 18
-35 29 0 16 28 10 34 -7z m36 6 c0 -5 -2 -10 -4 -10 -3 0 -8 5 -11 10 -3 6 -1
10 4 10 6 0 11 -4 11 -10z m30 -15 c0 -14 -4 -25 -10 -25 -5 0 -10 11 -10 25
0 14 5 25 10 25 6 0 10 -11 10 -25z m38 -7 c0 -30 -1 -31 -9 -10 -5 13 -7 28
-3 33 9 15 11 11 12 -23z m-188 -48 c0 -5 -2 -10 -4 -10 -3 0 -8 5 -11 10 -3
6 -1 10 4 10 6 0 11 -4 11 -10z m84 -39 c8 -13 10 -13 17 4 7 19 8 18 8 -2 1
-26 -11 -29 -31 -9 -8 8 -26 11 -46 8 -18 -2 -32 0 -32 6 0 25 69 19 84 -7z
m1096 -2 c0 -12 -7 -19 -20 -19 -19 0 -28 28 -14 43 11 11 34 -5 34 -24z
m-980 11 c0 -5 -5 -10 -11 -10 -5 0 -7 5 -4 10 3 6 8 10 11 10 2 0 4 -4 4 -10z
m-37 -17 c-6 -14 -43 -18 -43 -5 0 14 11 21 30 19 10 -1 16 -7 13 -14z m622 0
c-2 -10 -4 -21 -4 -25 -1 -5 -5 -8 -11 -8 -11 0 -14 33 -3 43 12 13 21 7 18
-10z m202 4 c-3 -8 3 -14 14 -14 11 -1 17 2 14 8 -4 5 4 10 17 10 13 1 33 3
45 4 12 1 24 -4 28 -13 3 -10 0 -12 -10 -9 -8 4 -17 1 -21 -5 -4 -7 -9 -6 -14
3 -7 10 -12 10 -23 1 -13 -11 -59 -15 -144 -12 -13 0 -23 5 -23 12 0 6 -8 4
-18 -5 -24 -22 -54 -22 -50 0 4 21 98 30 110 10 5 -9 10 -9 19 0 6 6 17 9 24
7 7 -3 16 -1 20 5 9 15 18 14 12 -2z m-736 -12 c0 -5 -5 -11 -12 -14 -6 -2 -9
1 -5 7 3 6 0 13 -6 16 -7 3 -5 5 5 3 10 -1 18 -6 18 -12z m69 -8 c0 -17 -2
-19 -9 -8 -8 12 -12 12 -25 2 -12 -10 -15 -9 -13 6 0 12 9 20 24 21 18 1 23
-3 23 -21z m96 12 c4 -8 9 -7 14 2 7 10 12 10 25 -1 14 -11 20 -12 37 -1 18
11 20 11 14 -4 -6 -16 -4 -16 16 -3 16 11 30 13 47 6 17 -6 27 -5 33 4 5 9 8
4 8 -14 0 -25 -1 -26 -35 -17 -23 7 -41 6 -54 -1 -13 -7 -22 -7 -26 0 -4 6
-10 8 -15 5 -5 -3 -11 -1 -15 4 -4 7 -15 7 -31 1 -36 -14 -44 -12 -44 10 0 22
15 27 26 9z m274 -21 c0 -16 -3 -18 -14 -9 -11 9 -15 9 -19 -1 -3 -10 -7 -10
-17 -1 -20 19 -5 41 24 36 18 -4 26 -12 26 -25z m30 -18 c0 -5 -4 -10 -10 -10
-5 0 -10 5 -10 10 0 6 5 10 10 10 6 0 10 -4 10 -10z m-585 -32 c5 4 5 1 1 -5
-4 -7 -16 -13 -27 -13 -21 0 -22 1 -12 26 6 15 7 15 18 1 7 -9 16 -13 20 -9z
m115 1 c0 -6 7 -9 15 -5 10 3 15 -1 15 -12 0 -24 -59 -27 -76 -4 -8 10 -13 12
-14 5 0 -18 -30 -16 -30 1 0 19 48 16 60 -4 8 -12 10 -11 10 8 0 12 5 22 10
22 6 0 10 -5 10 -11z m266 -13 c45 2 59 -2 75 -19 25 -27 24 -41 -1 -27 -11 6
-20 16 -20 22 0 6 -6 6 -16 -3 -13 -10 -17 -10 -25 2 -7 11 -11 12 -17 1 -11
-17 -107 -18 -127 -2 -10 8 -19 8 -34 1 -23 -13 -51 -5 -51 15 0 18 71 19 88
2 9 -9 12 -9 12 1 0 8 7 10 20 6 14 -4 22 -1 27 12 6 15 8 15 11 2 2 -12 15
-15 58 -13z m464 20 c0 -3 -4 -8 -10 -11 -5 -3 -10 -1 -10 4 0 6 5 11 10 11 6
0 10 -2 10 -4z m-306 -15 c7 -10 56 -9 74 2 8 6 12 1 12 -16 0 -31 -37 -44
-56 -19 -11 14 -13 14 -14 2 0 -13 -2 -13 -9 -1 -8 12 -12 12 -25 2 -14 -12
-16 -10 -16 13 0 25 22 37 34 17z m243 -21 c20 -24 15 -35 -7 -15 -11 10 -20
13 -20 7 0 -16 -37 -15 -43 1 -4 8 -8 9 -14 2 -12 -15 -63 -15 -63 -1 0 21 7
23 73 22 43 0 66 -5 74 -16z m63 -4 c0 -3 -4 -8 -10 -11 -5 -3 -10 -1 -10 4 0
6 5 11 10 11 6 0 10 -2 10 -4z m-914 -47 c12 12 76 -1 72 -14 -2 -5 -12 -9
-23 -7 -11 1 -31 4 -45 6 -14 1 -31 4 -37 4 -7 1 -13 9 -13 19 0 15 1 15 18 0
11 -10 22 -13 28 -8z m204 -16 c0 -17 -17 -25 -23 -11 -4 10 -7 11 -18 1 -20
-20 -50 -17 -42 4 4 10 2 14 -5 9 -6 -3 -13 -3 -16 2 -3 5 19 8 49 8 35 -1 55
-5 55 -13z m132 -13 c-5 -35 -22 -30 -22 6 0 13 6 24 13 24 9 0 12 -10 9 -30z
m330 5 c-2 -14 -8 -28 -13 -31 -10 -6 -12 39 -2 49 13 14 20 6 15 -18z m308
21 c0 -3 -4 -8 -10 -11 -5 -3 -10 -1 -10 4 0 6 5 11 10 11 6 0 10 -2 10 -4z
m-710 -16 c4 0 10 -9 13 -19 3 -14 1 -18 -9 -14 -8 3 -14 10 -14 15 0 6 -7 5
-15 -2 -19 -15 -30 -7 -21 16 4 10 12 14 22 10 9 -3 19 -6 24 -6z m161 0 c5 0
9 -10 9 -22 0 -19 -2 -20 -10 -8 -6 10 -10 11 -10 3 0 -20 -20 -15 -20 5 -1
16 -1 16 -11 -1 -11 -19 -29 -14 -29 8 0 15 27 25 48 19 8 -2 18 -4 23 -4z
m109 -21 c0 -10 -4 -19 -10 -19 -5 0 -10 7 -10 16 0 9 -6 14 -12 11 -7 -2 -12
-10 -10 -16 1 -6 -9 -11 -23 -11 -19 0 -25 5 -25 21 0 15 5 19 15 15 8 -3 25
-2 37 3 28 11 38 6 38 -20z m391 -5 c6 -7 -1 -9 -21 -6 -35 5 -35 5 -13 28 14
13 18 14 21 3 3 -8 8 -19 13 -25z m-353 3 c2 -10 -3 -17 -12 -17 -10 0 -16 9
-16 21 0 24 23 21 28 -4z m125 3 c-3 -11 -9 -17 -14 -15 -10 7 -1 35 11 35 5
0 6 -9 3 -20z m75 8 c9 -9 12 -9 12 0 0 7 16 12 40 12 29 0 40 -4 40 -15 0 -9
-9 -15 -22 -14 -40 1 -63 -6 -75 -21 -9 -10 -12 -11 -13 -2 0 6 -11 12 -25 12
-27 0 -28 1 -19 24 7 19 45 21 62 4z m-148 -5 c0 -10 -20 -40 -20 -31 0 3 -3
13 -6 22 -4 11 -1 16 10 16 9 0 16 -3 16 -7z m-415 -132 c3 -5 1 -12 -5 -16
-5 -3 -10 1 -10 9 0 18 6 21 15 7z m215 -11 c0 -5 -4 -10 -10 -10 -5 0 -10 5
-10 10 0 6 5 10 10 10 6 0 10 -4 10 -10z m46 -17 c-10 -10 -19 5 -10 18 6 11
8 11 12 0 2 -7 1 -15 -2 -18z m117 7 c-4 -4 -19 -11 -31 -15 -23 -7 -24 -7 -5
12 10 11 24 17 31 15 7 -3 10 -8 5 -12z m167 0 c0 -11 -2 -20 -4 -20 -2 0 -6
9 -9 20 -3 11 -1 20 4 20 5 0 9 -9 9 -20z m50 -1 c0 -5 -4 -9 -10 -9 -5 0 -10
7 -10 16 0 8 5 12 10 9 6 -3 10 -10 10 -16z m80 11 c0 -5 -2 -10 -4 -10 -3 0
-8 5 -11 10 -3 6 -1 10 4 10 6 0 11 -4 11 -10z m-443 -22 c-3 -8 -6 -5 -6 6
-1 11 2 17 5 13 3 -3 4 -12 1 -19z m-527 -8 c0 -5 -2 -10 -4 -10 -3 0 -8 5
-11 10 -3 6 -1 10 4 10 6 0 11 -4 11 -10z m25 -10 c3 -5 1 -10 -4 -10 -6 0
-11 5 -11 10 0 6 2 10 4 10 3 0 8 -4 11 -10z m382 -52 c-3 -8 -6 -5 -6 6 -1
11 2 17 5 13 3 -3 4 -12 1 -19z m183 7 c0 -8 -7 -15 -16 -15 -14 0 -14 3 -4
15 7 8 14 15 16 15 2 0 4 -7 4 -15z m110 9 c0 -1 -3 -9 -6 -18 -8 -22 -24 -20
-24 2 0 10 7 19 15 19 8 0 15 -1 15 -3z m49 -13 c9 -16 8 -18 -8 -14 -12 3
-17 11 -14 19 7 18 10 18 22 -5z m95 4 c3 -8 1 -15 -4 -15 -6 0 -10 7 -10 15
0 8 2 15 4 15 2 0 6 -7 10 -15z m43 -7 c-3 -8 -6 -5 -6 6 -1 11 2 17 5 13 3
-3 4 -12 1 -19z m-362 -8 c3 -6 -1 -7 -9 -4 -18 7 -21 14 -7 14 6 0 13 -4 16
-10z m-402 -40 c3 -11 1 -18 -4 -14 -5 3 -9 12 -9 20 0 20 7 17 13 -6z m31 -6
c3 -8 2 -12 -4 -9 -6 3 -10 10 -10 16 0 14 7 11 14 -7z m-139 -64 c3 -5 -1
-10 -10 -10 -9 0 -13 5 -10 10 3 6 8 10 10 10 2 0 7 -4 10 -10z m85 -20 c0 -5
-5 -10 -11 -10 -5 0 -7 5 -4 10 3 6 8 10 11 10 2 0 4 -4 4 -10z m990 -15 c0
-8 -7 -15 -15 -15 -13 0 -14 3 -3 15 16 18 18 18 18 0z m-760 -9 c0 -3 -4 -8
-10 -11 -5 -3 -10 -1 -10 4 0 6 5 11 10 11 6 0 10 -2 10 -4z m100 -12 c0 -8
-5 -12 -10 -9 -6 4 -8 11 -5 16 9 14 15 11 15 -7z m120 -4 c0 -5 -5 -10 -11
-10 -5 0 -7 5 -4 10 3 6 8 10 11 10 2 0 4 -4 4 -10z m240 6 c0 -3 -4 -8 -10
-11 -5 -3 -10 -1 -10 4 0 6 5 11 10 11 6 0 10 -2 10 -4z m-30 -10 c0 -3 -4 -8
-10 -11 -5 -3 -10 -1 -10 4 0 6 5 11 10 11 6 0 10 -2 10 -4z"/>
<path d="M6481 1918 c-14 -23 -14 -23 8 -4 22 20 25 26 13 26 -4 0 -13 -10
-21 -22z"/>
<path d="M6530 1935 c0 -6 7 -19 15 -29 18 -24 20 -56 3 -57 -7 0 -3 -4 9 -9
12 -5 24 -21 28 -40 4 -17 9 -29 12 -26 7 6 -34 124 -53 150 -7 11 -14 16 -14
11z"/>
<path d="M6443 1829 c-14 -41 -17 -57 -7 -45 7 11 14 25 14 32 0 7 6 17 13 21
8 5 11 17 8 32 -5 19 -10 12 -28 -40z"/>
<path d="M6508 1843 c7 -3 16 -2 19 1 4 3 -2 6 -13 5 -11 0 -14 -3 -6 -6z"/>
<path d="M6480 1810 c0 -5 5 -10 10 -10 6 0 10 5 10 10 0 6 -4 10 -10 10 -5 0
-10 -4 -10 -10z"/>
<path d="M6523 1779 c5 -58 29 -66 25 -8 -2 24 -9 44 -16 47 -10 3 -12 -7 -9
-39z"/>
<path d="M6480 1750 c0 -11 7 -20 15 -20 17 0 18 2 9 24 -9 23 -24 20 -24 -4z"/>
<path d="M6425 1749 c-4 -6 -5 -12 -2 -15 7 -7 37 7 37 17 0 13 -27 11 -35 -2z"/>
<path d="M5339 1973 c-34 -4 -36 -6 -37 -41 0 -20 -1 -44 -3 -52 -3 -9 5 -16
18 -18 20 -3 21 0 16 33 -4 26 -2 40 8 46 26 17 37 9 44 -31 4 -22 10 -40 15
-40 13 0 21 32 11 44 -5 6 -11 22 -13 35 -3 27 -8 29 -59 24z"/>
<path d="M5420 1959 c0 -11 5 -17 10 -14 6 3 10 13 10 21 0 8 -4 14 -10 14 -5
0 -10 -9 -10 -21z"/>
<path d="M5463 1973 c-7 -2 -13 -12 -13 -20 0 -13 3 -13 15 -3 12 10 15 10 15
-3 0 -8 -7 -20 -15 -27 -22 -18 -19 -50 5 -50 11 0 20 7 20 16 0 8 -4 12 -10
9 -5 -3 -10 -1 -10 4 0 6 5 11 10 11 6 0 10 16 10 35 0 35 -3 38 -27 28z"/>
<path d="M5037 1952 c-43 -47 16 -135 60 -91 8 8 17 8 31 0 28 -15 38 -14 57
5 15 15 17 15 35 -1 18 -17 21 -17 45 -1 14 9 23 21 20 27 -4 5 -10 7 -15 4
-14 -8 -40 6 -40 22 0 11 7 14 21 10 13 -3 22 0 26 9 8 23 -12 37 -41 30 -19
-5 -26 -13 -26 -31 0 -16 -6 -25 -15 -25 -8 0 -15 5 -15 10 0 6 -6 10 -14 10
-17 0 -31 18 -22 27 3 3 12 0 21 -7 17 -14 31 -8 20 9 -9 16 -41 13 -58 -4
-13 -13 -16 -13 -27 0 -17 20 -43 19 -63 -3z m37 -13 c-3 -5 -10 -7 -15 -3 -5
3 -7 10 -3 15 3 5 10 7 15 3 5 -3 7 -10 3 -15z m181 11 c3 -5 -1 -10 -9 -10
-9 0 -16 5 -16 10 0 6 4 10 9 10 6 0 13 -4 16 -10z m-85 -64 c0 -1 -24 -3 -52
-3 -48 -1 -67 8 -68 29 0 16 66 12 93 -5 15 -10 27 -19 27 -21z"/>
<path d="M2251 1934 c0 -11 3 -14 6 -6 3 7 2 16 -1 19 -3 4 -6 -2 -5 -13z"/>
<path d="M5930 1924 c0 -8 5 -12 10 -9 6 3 10 10 10 16 0 5 -4 9 -10 9 -5 0
-10 -7 -10 -16z"/>
<path d="M3112 1814 c-45 -31 -18 -92 36 -81 15 3 34 2 42 -3 10 -6 23 -4 37
5 14 9 24 11 28 5 10 -16 55 -12 55 5 0 8 -6 15 -14 15 -21 0 -29 17 -17 37
10 17 10 17 11 1 0 -20 15 -24 26 -6 9 14 -23 38 -42 31 -8 -3 -17 -16 -20
-29 -7 -27 -12 -29 -36 -10 -22 16 -23 30 -3 22 8 -3 15 -1 15 3 0 5 -7 11
-15 15 -8 3 -15 1 -15 -4 0 -13 -37 -13 -45 0 -8 14 -17 13 -43 -6z m28 -14
c0 -5 8 -10 17 -10 19 0 53 -28 53 -44 0 -6 -4 -6 -11 1 -7 7 -24 10 -39 7
-30 -7 -54 15 -44 40 7 18 24 22 24 6z"/>
<path d="M6827 1810 c3 -12 14 -20 27 -20 19 -1 56 -21 56 -31 0 -9 -85 -6
-96 2 -6 5 -9 21 -6 36 6 30 -13 25 -21 -6 -10 -39 17 -58 80 -58 32 0 61 4
65 10 4 7 11 7 22 -2 18 -15 56 -6 56 14 0 7 -8 12 -17 11 -13 -1 -19 7 -21
29 -2 28 -2 29 13 11 17 -22 31 -16 21 9 -8 23 -50 15 -54 -10 -6 -32 -15 -35
-42 -15 -14 10 -22 22 -18 26 4 4 14 1 23 -6 11 -9 15 -9 15 -1 0 20 -30 24
-49 7 -16 -15 -19 -15 -31 -1 -18 21 -29 19 -23 -5z"/>
<path d="M7028 1785 c-3 -37 0 -45 14 -45 14 0 16 6 11 31 -4 21 -1 34 8 40
22 14 27 11 39 -27 9 -26 15 -33 23 -25 8 8 8 14 -1 23 -7 7 -12 20 -12 30 0
14 -8 18 -39 18 l-39 0 -4 -45z"/>
<path d="M3332 1775 c-1 -35 2 -45 14 -45 12 0 14 7 9 29 -5 23 -2 32 14 40
22 12 25 9 35 -33 4 -18 11 -25 16 -20 6 6 5 22 -2 42 -11 28 -17 32 -48 32
-35 0 -36 0 -38 -45z"/>
<path d="M3435 1810 c3 -5 8 -10 11 -10 2 0 4 5 4 10 0 6 -5 10 -11 10 -5 0
-7 -4 -4 -10z"/>
<path d="M3460 1810 c0 -5 7 -10 15 -10 8 0 15 5 15 10 0 6 -7 10 -15 10 -8 0
-15 -4 -15 -10z"/>
<path d="M5598 1800 c-13 -8 -15 -20 -11 -63 3 -28 5 -56 5 -62 -1 -5 -3 -74
-5 -153 -3 -110 0 -145 10 -153 17 -15 17 -36 -2 -43 -11 -4 -15 -22 -15 -76
0 -54 4 -72 15 -76 19 -8 19 -40 0 -47 -12 -5 -14 -39 -14 -204 0 -203 3 -238
20 -227 6 3 7 -5 3 -21 -5 -21 -4 -27 7 -23 17 6 18 30 25 611 4 360 3 407
-11 407 -19 0 -19 11 0 36 18 24 20 104 3 104 -7 0 -21 -5 -30 -10z"/>
<path d="M3468 1766 c-17 -24 -15 -36 7 -36 7 0 12 14 13 30 0 17 0 30 -1 30
-1 0 -10 -11 -19 -24z"/>
<path d="M7160 1770 c0 -11 4 -20 9 -20 5 0 7 9 4 20 -3 11 -7 20 -9 20 -2 0
-4 -9 -4 -20z"/>
<path d="M7277 1693 c-10 -9 -8 -58 3 -87 6 -16 6 -27 0 -31 -15 -9 -12 -231
3 -256 10 -17 10 -23 0 -26 -9 -3 -13 -26 -13 -64 0 -33 6 -69 13 -80 10 -17
10 -23 0 -26 -18 -7 -19 -367 -1 -361 21 7 33 67 19 90 -9 15 -10 28 -2 47 12
33 22 669 10 677 -12 7 -11 51 0 59 5 3 9 19 9 35 -1 29 -23 41 -41 23z"/>
<path d="M2146 1664 c-11 -28 -7 -934 4 -934 11 0 12 18 9 170 -1 58 -1 257
-1 443 1 185 0 337 -2 337 -2 0 -7 -7 -10 -16z"/>
<path d="M3575 1659 c-9 -13 3 -79 14 -79 19 0 39 36 34 63 -5 28 -35 38 -48
16z"/>
<path d="M9189 1627 c-10 -23 -20 -51 -24 -62 -5 -13 -9 -15 -12 -7 -7 19 -23
3 -23 -24 0 -15 -6 -24 -15 -24 -8 0 -15 -6 -15 -13 0 -8 -11 -24 -25 -37 -14
-13 -23 -26 -20 -28 2 -3 -15 -17 -38 -33 -23 -15 -59 -44 -80 -63 -20 -20
-42 -36 -47 -36 -6 0 -10 -7 -10 -15 0 -8 -9 -15 -21 -15 -11 0 -32 -13 -47
-30 -15 -16 -42 -33 -60 -36 -18 -4 -32 -13 -32 -20 0 -8 -7 -14 -15 -14 -8 0
-15 -6 -15 -14 0 -7 -28 -30 -62 -51 -35 -21 -79 -54 -98 -73 -19 -19 -45 -38
-57 -43 -13 -5 -23 -14 -23 -21 0 -7 -12 -22 -26 -33 -46 -35 -159 -149 -183
-183 -13 -18 -36 -47 -52 -65 -16 -17 -29 -37 -29 -44 0 -7 -7 -13 -15 -13 -8
0 -15 -5 -15 -12 0 -6 -11 -26 -25 -44 -14 -18 -25 -35 -25 -38 0 -3 -18 -23
-40 -43 -22 -21 -40 -47 -40 -59 0 -12 -11 -26 -25 -34 -13 -7 -27 -21 -31
-32 -3 -10 -10 -18 -15 -18 -5 0 -9 -9 -9 -20 0 -11 -6 -20 -12 -20 -7 0 -26
-28 -43 -62 -16 -34 -37 -70 -45 -79 -8 -9 -26 -35 -40 -58 -13 -22 -31 -41
-40 -41 -12 -1 -11 -4 4 -15 16 -12 53 -15 175 -14 86 1 167 5 181 9 14 4 19
8 12 9 -8 1 0 15 17 34 17 17 31 36 31 40 0 4 13 22 30 40 16 18 30 38 30 45
0 6 3 12 8 12 4 0 16 17 27 37 24 47 49 81 98 137 20 24 37 48 37 55 0 6 7 11
15 11 8 0 15 9 15 20 0 11 7 20 15 20 8 0 22 17 32 37 9 20 38 58 64 84 25 26
62 69 80 95 38 56 68 93 122 148 20 21 37 41 37 45 0 4 21 32 46 62 97 112
197 257 294 424 35 61 70 117 77 127 29 33 47 138 25 138 -4 0 -14 -19 -23
-43z"/>
<path d="M5831 1259 c0 -217 4 -416 9 -444 4 -27 6 147 5 388 -2 241 -6 441
-9 444 -3 4 -6 -171 -5 -388z"/>
<path d="M3577 1543 c-11 -41 -8 -221 4 -246 10 -21 10 -30 1 -39 -16 -16 -16
-125 1 -131 9 -3 9 -9 -1 -26 -19 -33 -15 -421 4 -421 8 0 14 3 15 8 3 28 9
61 14 84 5 19 2 36 -9 52 -11 18 -12 26 -3 29 9 3 12 62 14 233 1 126 2 280 3
343 2 87 -1 115 -11 122 -20 13 -27 11 -32 -8z"/>
<path d="M5240 1210 c0 -5 5 -10 10 -10 6 0 10 5 10 10 0 6 -4 10 -10 10 -5 0
-10 -4 -10 -10z"/>
<path d="M4001 1174 c0 -11 3 -14 6 -6 3 7 2 16 -1 19 -3 4 -6 -2 -5 -13z"/>
<path d="M9500 1108 c0 -25 -63 -184 -115 -293 -36 -73 -96 -140 -284 -315
-162 -150 -197 -185 -204 -203 -3 -9 -17 -21 -29 -26 -13 -5 -41 -30 -63 -55
-22 -25 -45 -46 -52 -46 -7 0 -13 -5 -13 -11 0 -6 -23 -33 -52 -60 -30 -28
-48 -53 -42 -57 5 -4 201 -6 437 -4 l427 4 0 544 c0 299 -2 544 -5 544 -3 0
-5 -10 -5 -22z m-422 -1025 c2 -9 -7 -13 -27 -13 -21 0 -31 5 -31 16 0 19 51
16 58 -3z"/>
<path d="M5512 750 c0 -14 2 -19 5 -12 2 6 2 18 0 25 -3 6 -5 1 -5 -13z"/>
<path d="M7270 724 c0 -8 5 -12 10 -9 6 3 10 10 10 16 0 5 -4 9 -10 9 -5 0
-10 -7 -10 -16z"/>
<path d="M2110 354 l0 -315 32 3 31 3 -1 140 c-3 246 -14 460 -24 473 -6 6
-17 12 -24 12 -12 0 -14 -54 -14 -316z"/>
<path d="M2237 613 c-3 -5 -2 -135 1 -290 l5 -283 111 -1 c61 0 260 0 441 0
182 1 412 1 513 1 l182 0 0 271 0 271 -142 -8 c-328 -20 -782 -6 -1007 32 -97
16 -98 16 -104 7z"/>
<path d="M3588 609 c-17 -9 -18 -34 -18 -289 l0 -280 25 0 25 0 2 218 c4 337
4 355 -7 358 -5 2 -18 -1 -27 -7z"/>
<path d="M3877 393 c-12 -332 -11 -350 16 -357 49 -13 47 -22 47 252 l0 258
-25 22 c-14 12 -27 22 -28 22 -2 0 -7 -88 -10 -197z"/>
<path d="M5598 563 c-13 -3 -17 -25 -23 -126 -3 -67 -5 -185 -3 -262 3 -137 4
-140 26 -143 12 -2 24 3 27 10 10 28 10 528 0 527 -5 -1 -17 -3 -27 -6z"/>
<path d="M4012 288 l3 -253 728 -3 c577 -2 728 0 732 10 7 23 13 478 6 482 -3
2 -33 0 -66 -5 -139 -20 -440 -39 -618 -39 -251 0 -685 32 -770 56 -16 5 -17
-10 -15 -248z"/>
</g>
</svg>
